<svg width="130" height="54" viewBox="0 0 130 54" fill="none" xmlns="http://www.w3.org/2000/svg">
<path fill-rule="evenodd" clip-rule="evenodd" d="M24.0948 42.449C24.4487 41.3153 24.7479 40.3369 24.9033 39.819C25.8413 36.6653 29.1217 29.1149 29.6137 23.0952C29.9907 18.5028 28.7505 14.7851 24.5177 13.7434C20.6706 12.7967 16.786 15.1361 13.3445 19.3516C5.93792 28.4243 0.321149 46.0804 0.00175015 51.8526C-0.0327794 52.4827 0.447754 53.0208 1.07792 53.0553C1.70521 53.0899 2.24327 52.6093 2.2778 51.9792C2.58569 46.44 8.00111 29.5033 15.1113 20.7932C17.891 17.3892 20.8662 15.1937 23.9739 15.9591C27.0412 16.713 27.6139 19.5789 27.3406 22.9081C26.8629 28.7666 23.6315 36.0984 22.7164 39.1687C22.1438 41.0937 19.7527 48.3737 19.698 49.047C19.6289 49.8901 20.2303 50.1721 20.4346 50.2498C20.5929 50.3102 21.4014 50.5606 21.905 49.6542C29.0929 36.7343 49.0654 21.8838 70.3414 15.9648C91.4303 10.0977 113.866 13.0471 126.262 35.8165C126.564 36.3689 127.258 36.5732 127.81 36.2739C128.363 35.9718 128.567 35.2784 128.265 34.7259C115.276 10.8688 91.8245 7.62014 69.7313 13.7664C51.1112 18.9458 33.5041 30.8298 24.0948 42.449Z" fill="black"/>
<path fill-rule="evenodd" clip-rule="evenodd" d="M126.459 34.1762C123.97 33.1575 121.524 32.0641 118.955 31.2383C112.109 29.037 104.53 28.1996 97.4257 29.4657C96.8042 29.5779 96.3926 30.1707 96.502 30.7894C96.6142 31.4109 97.207 31.8224 97.8256 31.713C104.568 30.5074 111.761 31.3217 118.256 33.4107C121.196 34.3574 123.976 35.6609 126.845 36.7917C126.989 36.8464 128.22 37.3759 128.511 37.4162C129.187 37.514 129.53 37.1227 129.665 36.9213C129.78 36.7544 129.878 36.527 129.886 36.222C129.892 35.9717 129.791 35.494 129.521 34.884C128.661 32.9273 125.999 28.6514 125.636 27.9033C121.478 19.3284 119.05 10.6529 116.264 1.58312C116.077 0.981726 115.439 0.642149 114.837 0.826307C114.236 1.01046 113.899 1.64932 114.083 2.25071C116.903 11.4356 119.375 20.2176 123.585 28.896C123.832 29.4111 125.36 32.1878 126.459 34.1762Z" fill="black"/>
</svg>
