<svg width="130" height="130" viewBox="0 0 130 130" fill="none" xmlns="http://www.w3.org/2000/svg">
<g clip-path="url(#clip0_9_235)">
<path fill-rule="evenodd" clip-rule="evenodd" d="M99.663 31.28C94.6894 70.5932 64.8002 97.3072 25.2436 91.4852C23.9266 91.2913 22.7018 92.2012 22.5027 93.5048C22.3109 94.8274 23.2215 96.0542 24.5384 96.2481C66.9447 102.506 99.1102 74.0175 104.447 31.8917C104.616 30.5778 103.676 29.3619 102.355 29.1914C101.042 29.04 99.8319 29.9662 99.663 31.28Z" fill="#121212"/>
<path d="M47.2113 66.9868C50.8293 65.5936 52.6329 61.5312 51.2397 57.9132C49.8465 54.2952 45.7841 52.4917 42.1661 53.8849C38.548 55.2781 36.7445 59.3404 38.1377 62.9584C39.5309 66.5764 43.5933 68.38 47.2113 66.9868Z" fill="#121212"/>
<path d="M71.6478 49.5749C75.1951 48.2089 76.9635 44.226 75.5976 40.6787C74.2316 37.1314 70.2485 35.3631 66.7012 36.7291C63.1539 38.0951 61.3856 42.078 62.7516 45.6253C64.1176 49.1726 68.1005 50.9409 71.6478 49.5749Z" fill="#121212"/>
</g>
<defs>
<clipPath id="clip0_9_235">
<rect width="100" height="100" fill="white" transform="translate(0 35.9352) rotate(-21.0604)"/>
</clipPath>
</defs>
</svg>
