<svg width="279" height="34" viewBox="0 0 279 34" fill="none" xmlns="http://www.w3.org/2000/svg">
<path fill-rule="evenodd" clip-rule="evenodd" d="M255.004 1.61044C250.183 0.790265 240.488 0.568955 212.822 0.648925C192.899 0.706337 184.271 0.978172 164.42 2.17353C134.866 3.95333 119.293 5.7799 86.2424 11.3434C79.561 12.4682 69.0915 14.0803 62.9768 14.9263C37.1625 18.4976 7.58168 25.4773 6.67862 28.2104C6.55624 28.5814 6.60991 28.9349 6.79812 28.9954C6.98633 29.056 9.4535 28.3617 12.281 27.4531C17.085 25.9087 21.1932 24.8563 21.0834 25.1976C21.057 25.2796 19.6875 25.7468 18.0394 26.2362C16.3918 26.7253 12.5286 27.9679 9.45509 28.9969C6.38149 30.0264 3.07636 31.0518 2.10968 31.2762C0.329167 31.6893 -0.498492 32.6204 0.600527 32.974C1.70112 33.328 6.48298 32.3797 13.1614 30.4823C20.5115 28.3948 47.2367 22.1751 56.9121 20.3007C66.9102 18.3638 77.2693 16.798 84.013 16.2048C121.404 12.9153 136.85 12.2979 162.671 13.0602C198.524 14.1186 219.158 15.7965 246.103 19.8446C257.677 21.5833 268.273 23.524 271.025 24.4091C272.471 24.8745 273.159 24.8742 274.002 24.4071C275.548 23.5512 277.232 21.4703 277.795 19.7206C278.2 18.4622 278.123 18.0819 277.305 17.2686C275.343 15.3208 274.28 15.1623 242.614 12.0955C216.714 9.58749 199.609 8.57946 176.157 8.17917C171.915 8.1065 168.302 7.99154 168.128 7.92333C167.585 7.7089 184.102 7.23116 192.498 7.21802C202.808 7.20186 226.446 8.04718 237.102 8.81318C244.967 9.37827 245.586 9.48371 249.231 10.8711C252.911 12.2722 253.118 12.3064 254.184 11.682C255.777 10.7484 258.258 7.66843 258.817 5.92996C259.249 4.58697 259.17 4.31897 257.991 3.16133C257.273 2.45654 256.539 1.85847 256.359 1.83261C256.179 1.80662 255.569 1.70693 255.004 1.61044Z" fill="#57B79D"/>
</svg>
