<svg width="106" height="106" viewBox="0 0 106 106" fill="none" xmlns="http://www.w3.org/2000/svg">
<path d="M43.774 35.9466C45.4825 33.5874 47.3911 31.2865 49.4942 29.0759C49.8879 28.6621 50.2884 28.2514 50.6957 27.8442C60.6442 17.8957 72.6045 11.9907 83.5271 10.6756C90.2969 9.86048 95.8648 15.4283 95.0497 22.198C93.7499 32.9926 87.9672 44.8006 78.2291 54.6786C78.1136 54.7957 77.9976 54.9126 77.881 55.0292C77.2592 55.651 76.6295 56.2569 75.9928 56.847C73.7969 58.8819 71.5163 60.7273 69.1817 62.3779M56.0341 69.438C52.3327 70.8397 48.6352 71.766 45.0496 72.1977C42.5591 72.4976 40.1225 72.5589 37.7761 72.375C35.3999 72.1888 33.5359 70.3249 33.3497 67.9487C33.1659 65.6023 33.2272 63.1658 33.527 60.6753C33.9176 57.4311 34.7132 54.0954 35.8993 50.7481" stroke="#121212" stroke-width="4" stroke-linecap="round" stroke-linejoin="round"/>
<path d="M51.3304 87.7408C49.685 88.1101 48.7301 86.0153 49.8439 84.7525C55.645 78.1749 57.8625 70.2461 54.8807 63.7097C54.8315 63.6019 54.8883 63.4754 55.002 63.4437C58.3203 62.5205 61.9441 62.0175 65.7402 62.0277C66.7909 62.0305 67.8287 62.0725 68.8507 62.1519C69.4576 62.199 69.9942 62.5758 70.2181 63.1428C70.8956 64.8585 71.2598 66.6644 71.2648 68.5281C71.289 77.5314 62.9222 85.1398 51.3304 87.7408Z" stroke="#121212" stroke-width="4"/>
<path d="M17.3794 53.7902C17.0101 55.4356 19.1049 56.3905 20.3677 55.2768C26.9454 49.4757 34.8743 47.2583 41.4107 50.24C41.5185 50.2892 41.645 50.2324 41.6767 50.1187C42.5999 46.8004 43.1029 43.1767 43.0927 39.3806C43.0899 38.3299 43.0479 37.2921 42.9685 36.2702C42.9214 35.6632 42.5446 35.1266 41.9776 34.9027C40.2619 34.2253 38.456 33.861 36.5923 33.856C27.5889 33.8319 19.9804 42.1985 17.3794 53.7902Z" stroke="#121212" stroke-width="4"/>
<circle cx="7.68912" cy="7.68912" r="7.68912" transform="matrix(0.70711 0.707104 -0.70711 0.707104 71.2911 22.9564)" stroke="#121212" stroke-width="4"/>
<path d="M8.92118 89.8303C7.02512 96.3101 9.4156 98.7006 15.8955 96.8045L29.8383 92.9307C35.3012 91.3322 37.7028 84.9392 34.6436 80.1393L32.1351 76.2035C31.4652 75.1524 30.5734 74.2607 29.5223 73.5908L25.5866 71.0823C20.7866 68.0231 14.3936 70.4247 12.7951 75.8876L8.92118 89.8303Z" stroke="#121212" stroke-width="4"/>
</svg>
