<svg width="98" height="100" viewBox="0 0 98 100" fill="none" xmlns="http://www.w3.org/2000/svg">
<path d="M57.8007 2.51426C66.8176 2.4894 76.5109 -2.53115 84.4995 1.68558C92.1357 5.71627 96.615 15.04 97.8321 23.6444C99.0302 32.1151 93.5081 39.8621 91.0584 48.0542C89.0012 54.9334 88.2748 62.1968 84.4842 68.2807C80.7044 74.3472 75.0664 78.7927 69.2994 82.977C63.3109 87.322 56.9157 90.7338 49.9932 93.3061C41.8009 96.3504 33.3243 101.671 24.866 99.4883C16.4639 97.32 10.5142 89.3869 5.96157 81.9429C1.77672 75.1003 0.472818 66.9164 0.0360166 58.8891C-0.339937 51.9802 2.32208 45.507 3.60907 38.7104C4.79926 32.425 4.80913 25.9912 7.37383 20.1382C10.1316 13.8447 13.1174 6.90876 19.0406 3.49346C24.9567 0.082288 32.3471 1.98271 39.1599 1.81059C45.4548 1.65157 51.5038 2.53162 57.8007 2.51426Z" fill="#F2B9CE" fill-opacity="0.2"/>
</svg>
