<svg width="70" height="105" viewBox="0 0 70 105" fill="none" xmlns="http://www.w3.org/2000/svg">
<path fill-rule="evenodd" clip-rule="evenodd" d="M5.80188 0.80188C3.04046 0.80188 0.80188 3.04046 0.80188 5.80188V99.1981C0.80188 101.96 3.04046 104.198 5.80188 104.198H64.8046C67.5661 104.198 69.8046 101.96 69.8046 99.1981V5.80188C69.8046 3.04045 67.5661 0.80188 64.8046 0.80188H48.7496H21.857H5.80188ZM19.857 4.80188H5.80188C5.2496 4.80188 4.80188 5.2496 4.80188 5.80188V99.1981C4.80188 99.7504 5.2496 100.198 5.80188 100.198H64.8046C65.3569 100.198 65.8046 99.7504 65.8046 99.1981V5.80188C65.8046 5.2496 65.3569 4.80188 64.8046 4.80188H50.7496V14.0438C50.7496 16.253 48.9588 18.0438 46.7496 18.0438H23.857C21.6478 18.0438 19.857 16.253 19.857 14.0438V4.80188ZM46.7496 4.80188V14.0438L23.857 14.0438V4.80188H46.7496Z" fill="#121212"/>
</svg>
