<svg width="103" height="107" viewBox="0 0 103 107" fill="none" xmlns="http://www.w3.org/2000/svg">
<path d="M68.98 16.32C74.8499 22.1298 76.423 30.5915 81.4584 37.1367C88.0533 45.7091 103.454 49.725 102.99 60.5275C102.535 71.1182 86.4593 73.0374 79.5699 81.0986C73.0888 88.6819 73.3482 102.223 64.1166 106.012C54.9435 109.777 45.3533 101.757 35.8106 99.0604C26.6834 96.4811 15.9175 97.2805 9.27564 90.5142C2.61515 83.729 2.48599 73.1906 1.17606 63.7769C-0.0721782 54.8064 -0.935077 45.7834 1.85215 37.1655C4.76875 28.1475 10.1753 20.2403 17.2854 13.9678C24.9633 7.19442 33.7264 -0.445274 43.958 0.0202727C54.1099 0.482192 61.7601 9.17394 68.98 16.32Z" fill="#5BC0C8" fill-opacity="0.2"/>
</svg>
