<?xml version="1.0" standalone="no"?>
<!DOCTYPE svg PUBLIC "-//W3C//DTD SVG 20010904//EN"
 "http://www.w3.org/TR/2001/REC-SVG-20010904/DTD/svg10.dtd">
<svg version="1.0" xmlns="http://www.w3.org/2000/svg"
 width="984.000000pt" height="984.000000pt" viewBox="0 0 984.000000 984.000000"
 preserveAspectRatio="xMidYMid meet">
<metadata>
Created by potrace 1.14, written by Peter Selinger 2001-2017
</metadata>
<g transform="translate(0.000000,984.000000) scale(0.100000,-0.100000)"
fill="#000000" stroke="none">
<path d="M4560 9778 c-13 -35 -31 -81 -41 -103 -9 -22 -44 -112 -78 -200 -33
-88 -66 -173 -72 -190 -7 -16 -13 -36 -15 -44 -1 -7 -7 -18 -13 -24 -6 -6 -11
-16 -11 -23 0 -6 -8 -29 -17 -50 -9 -22 -17 -43 -19 -49 -2 -10 -68 -182 -84
-220 -15 -35 -140 -356 -140 -360 0 -2 -5 -16 -12 -32 -6 -15 -12 -30 -13 -33
-1 -3 -7 -18 -14 -35 -7 -16 -37 -94 -67 -172 -30 -78 -63 -162 -74 -187 -11
-26 -20 -50 -21 -54 -2 -12 -118 -317 -140 -367 -25 -61 -80 -202 -84 -217 -2
-9 -9 -26 -15 -37 -6 -12 -8 -21 -4 -21 3 0 0 -7 -7 -16 -7 -9 -14 -21 -15
-28 -5 -20 -105 -279 -120 -308 -8 -15 -14 -30 -14 -33 -1 -8 -11 -38 -42
-115 -17 -41 -31 -79 -33 -85 -2 -11 -9 -28 -40 -105 -25 -60 -60 -150 -250
-645 -70 -181 -134 -342 -141 -357 -8 -16 -12 -28 -10 -28 3 0 -6 -24 -19 -54
-13 -30 -21 -57 -18 -60 4 -3 1 -6 -5 -6 -7 0 -12 -6 -12 -14 0 -12 -62 -178
-90 -241 -4 -11 -32 -81 -60 -155 -29 -74 -63 -162 -75 -195 -89 -229 -153
-396 -191 -495 -25 -63 -49 -124 -54 -135 -5 -11 -18 -47 -30 -80 -12 -33 -27
-66 -33 -74 -7 -8 -11 -16 -9 -18 3 -3 -37 -117 -63 -178 -7 -16 -29 -75 -50
-130 -20 -55 -45 -118 -55 -140 -9 -22 -21 -51 -25 -65 -4 -14 -13 -38 -21
-55 -16 -37 -104 -266 -108 -280 -1 -5 -8 -21 -16 -35 -7 -14 -13 -27 -13 -30
1 -3 -5 -20 -13 -39 -8 -18 -14 -37 -14 -42 0 -5 -4 -17 -10 -27 -9 -16 -196
-498 -227 -587 -8 -22 -19 -44 -24 -49 -5 -6 -9 -16 -9 -23 0 -10 -102 -282
-131 -348 -5 -11 -49 -126 -99 -255 -49 -129 -94 -243 -100 -252 -5 -10 -10
-22 -10 -27 0 -5 -5 -22 -12 -38 -6 -15 -12 -30 -13 -33 -1 -3 -6 -16 -12 -30
-6 -14 -19 -45 -28 -70 -10 -25 -25 -63 -34 -85 -9 -21 -17 -43 -17 -47 -1 -4
-3 -10 -4 -13 -1 -3 -3 -8 -5 -12 -2 -11 -14 -39 -36 -90 -10 -24 -15 -43 -11
-43 4 0 3 -4 -3 -8 -5 -4 -18 -29 -28 -57 -36 -98 -56 -151 -73 -190 -10 -22
-19 -46 -20 -53 -1 -7 -12 -33 -23 -58 -12 -24 -21 -47 -21 -52 0 -4 -27 -75
-61 -157 -33 -83 -62 -154 -63 -160 -2 -5 -8 -21 -14 -35 -90 -211 -119 -289
-109 -292 10 -3 1115 -2 1212 1 29 1 33 6 69 99 21 53 42 106 46 117 27 61 73
180 69 180 -1 0 8 18 20 40 11 22 21 48 21 57 0 10 5 18 10 18 6 0 9 3 8 7 -3
8 11 46 37 108 7 17 56 138 108 270 53 132 102 256 110 275 9 19 16 38 16 42
1 4 14 38 30 75 36 88 44 107 45 113 1 5 52 129 67 165 20 47 90 221 94 235 7
24 185 463 190 468 6 7 4532 5 4543 -2 5 -3 15 -27 22 -53 7 -27 16 -52 20
-58 4 -5 22 -55 40 -110 19 -55 41 -111 50 -125 8 -13 14 -27 13 -30 -3 -6 5
-38 17 -65 5 -11 16 -42 25 -70 9 -27 22 -63 29 -80 7 -16 18 -48 25 -70 7
-22 16 -49 21 -60 32 -79 50 -130 50 -146 0 -9 3 -19 8 -21 4 -1 15 -25 24
-53 17 -53 54 -158 113 -320 20 -55 50 -138 67 -185 16 -47 33 -94 38 -105 5
-11 19 -49 30 -85 12 -36 25 -74 30 -85 5 -11 41 -110 80 -220 39 -110 74
-207 77 -215 4 -8 7 -18 8 -22 2 -5 4 -10 5 -13 1 -3 3 -9 4 -14 0 -5 4 -13 9
-17 4 -4 7 -16 7 -26 0 -10 8 -18 18 -19 111 -5 782 -2 782 4 0 18 -86 249
-226 604 -24 62 -44 114 -44 116 0 3 -8 22 -17 43 -9 22 -18 44 -19 49 -1 6
-8 24 -15 40 -7 17 -13 32 -14 35 -1 3 -7 19 -14 35 -7 17 -14 35 -15 40 -2 6
-9 24 -15 40 -7 17 -29 73 -48 125 -20 52 -39 99 -44 104 -5 6 -9 18 -9 28 0
10 -4 26 -9 36 -14 28 -41 95 -47 117 -1 6 -14 36 -28 68 -14 31 -23 57 -20
57 4 0 2 6 -3 13 -5 6 -18 35 -28 62 -9 28 -23 64 -30 80 -7 17 -27 68 -45
115 -17 47 -36 94 -41 105 -4 11 -30 79 -57 150 -27 72 -53 139 -57 150 -5 11
-9 22 -10 25 -2 7 -24 62 -32 80 -3 8 -7 18 -8 23 -2 4 -4 9 -5 12 -1 3 -3 8
-5 13 -1 4 -7 21 -14 37 -7 17 -24 59 -37 95 -13 36 -28 74 -33 85 -17 37 -55
140 -57 151 -1 6 -8 27 -17 45 -18 42 -36 88 -82 209 -20 52 -40 104 -45 115
-5 11 -45 115 -89 230 -44 116 -86 224 -92 240 -7 17 -13 32 -14 35 -1 3 -5
14 -10 25 -4 11 -34 90 -67 175 -32 85 -63 164 -67 175 -5 11 -23 58 -41 105
-18 47 -36 94 -41 105 -5 11 -17 43 -27 70 -10 28 -22 59 -27 70 -4 11 -9 27
-11 35 -2 8 -7 23 -13 35 -5 11 -20 45 -31 75 -12 30 -26 64 -30 75 -12 28
-23 59 -25 68 -2 4 -4 9 -5 12 -1 3 -3 8 -5 13 -1 4 -7 21 -14 37 -6 17 -41
107 -77 200 -36 94 -76 197 -89 230 -37 96 -38 100 -37 108 1 4 -3 7 -8 7 -6
0 -10 7 -10 14 0 13 -105 296 -131 351 -5 11 -20 52 -35 90 -33 90 -73 193
-86 225 -13 31 -18 43 -58 150 -18 47 -36 94 -40 105 -7 16 -75 193 -136 350
-4 11 -8 22 -8 25 -1 3 -25 64 -54 137 -29 73 -52 135 -52 138 0 3 -8 25 -19
48 -21 49 -34 80 -35 87 -1 5 -38 101 -56 145 -4 11 -22 58 -40 105 -18 47
-36 94 -40 105 -5 11 -21 52 -35 90 -15 39 -42 108 -60 155 -19 47 -84 216
-145 375 -61 160 -115 299 -120 310 -9 20 -91 235 -157 410 -19 50 -43 109
-54 132 -10 24 -19 49 -19 56 0 7 -4 17 -8 23 -4 5 -14 27 -21 49 -7 22 -16
49 -21 60 -5 11 -32 81 -61 155 -28 74 -57 149 -65 167 -8 17 -14 34 -14 38 0
4 -6 21 -14 38 -21 49 -86 216 -103 267 -8 25 -19 49 -24 55 -5 5 -9 16 -9 25
0 9 -9 35 -20 58 l-20 42 -364 0 -364 0 -22 -62z m880 -2150 c94 -238 176
-442 180 -453 5 -11 23 -56 40 -100 18 -44 43 -105 56 -136 13 -31 24 -60 24
-64 0 -4 6 -21 14 -38 33 -77 68 -163 71 -177 2 -8 26 -69 53 -135 58 -141 65
-158 67 -165 1 -3 5 -12 8 -20 12 -29 28 -75 27 -78 0 -1 6 -15 14 -30 9 -15
32 -70 52 -122 20 -52 41 -106 47 -120 6 -14 11 -27 12 -30 2 -6 15 -39 48
-120 12 -30 22 -57 23 -60 0 -3 5 -16 11 -30 6 -14 36 -90 68 -170 31 -80 61
-154 66 -165 4 -11 36 -92 69 -180 34 -88 71 -185 83 -215 12 -30 22 -57 23
-60 0 -3 6 -18 13 -35 7 -16 33 -83 57 -149 25 -65 49 -127 55 -138 6 -10 12
-27 14 -36 1 -9 23 -69 48 -132 52 -133 74 -189 152 -395 31 -82 61 -161 67
-175 6 -14 14 -34 18 -45 4 -11 15 -40 25 -65 9 -25 21 -55 26 -67 4 -12 38
-102 75 -200 36 -98 70 -182 75 -188 5 -5 9 -18 9 -30 l0 -20 -1887 0 c-1249
0 -1889 3 -1890 10 -3 12 16 75 27 90 4 6 22 48 39 95 18 47 36 94 41 105 15
33 74 180 75 185 1 10 39 105 45 115 12 17 64 159 62 168 -1 4 3 7 8 7 6 0 10
6 10 14 0 7 8 31 17 52 9 22 17 41 18 44 1 3 7 19 14 35 6 17 21 55 33 85 12
30 25 59 30 65 4 5 8 17 8 27 0 10 4 18 10 18 5 0 9 3 8 8 -2 8 9 47 22 77 48
111 130 321 130 333 0 7 5 12 10 12 6 0 10 6 10 14 0 11 77 211 123 316 5 14
11 27 12 30 1 3 7 18 13 33 7 16 12 32 12 36 0 4 6 21 14 37 8 16 47 110 86
209 40 99 77 191 83 205 6 14 11 27 12 30 8 25 18 48 26 62 5 10 9 22 9 28 0
6 11 33 25 62 14 28 25 56 25 61 0 5 6 23 14 40 8 18 41 100 75 182 33 83 66
164 72 180 7 17 13 32 14 35 1 3 5 14 10 25 4 11 21 54 37 95 17 41 39 94 49
117 10 24 19 50 19 58 0 8 4 15 8 15 5 0 9 6 9 13 1 10 192 495 222 562 5 11
32 79 61 150 28 72 55 139 60 150 15 34 152 377 182 458 5 15 14 27 18 27 4 0
85 -195 180 -432z"/>
</g>
</svg>
