<svg width="168" height="55" viewBox="0 0 168 55" fill="none" xmlns="http://www.w3.org/2000/svg">
<g clip-path="url(#clip0_42_209)">
<path fill-rule="evenodd" clip-rule="evenodd" d="M27.5931 1.41398C28.0446 1.9707 28.2748 2.72193 28.7354 4.22437L38.796 37.0467C35.0763 35.1303 31.0326 33.7481 26.768 33.0024L20.2175 11.0184C20.1104 10.6587 19.7776 10.4119 19.4 10.4119C19.0213 10.4119 18.688 10.66 18.5816 11.0209L12.1105 32.9914C7.82611 33.7337 3.76395 35.1183 0.0283203 37.0417L10.1383 4.21677C10.6003 2.71691 10.8313 1.96697 11.2829 1.41128C11.6815 0.9207 12.2001 0.539701 12.789 0.304588C13.4562 0.038269 14.2458 0.038269 15.8252 0.038269H23.0462C24.6276 0.038269 25.4183 0.038269 26.0861 0.305144C26.6756 0.540744 27.1944 0.922515 27.5931 1.41398Z" fill="black"/>
<path fill-rule="evenodd" clip-rule="evenodd" d="M28.7972 38.6086C27.1387 40.0171 23.8283 40.9776 20.0152 40.9776C15.3351 40.9776 11.4125 39.5306 10.3716 37.5846C9.99952 38.6999 9.91608 39.9764 9.91608 40.7918C9.91608 40.7918 9.67089 44.7957 12.475 47.5806C12.475 46.1345 13.6554 44.9623 15.1114 44.9623C17.607 44.9623 17.6042 47.1246 17.602 48.879C17.6019 48.9315 17.6018 48.9837 17.6018 49.0355C17.6018 51.6983 19.2405 53.9809 21.571 54.9431C21.2229 54.2321 21.0276 53.4336 21.0276 52.5899C21.0276 50.0503 22.5289 49.1047 24.2737 48.0057C25.6619 47.1313 27.2044 46.1598 28.2674 44.2109C28.822 43.1941 29.137 42.0294 29.137 40.7918C29.137 40.0306 29.0179 39.2971 28.7972 38.6086Z" fill="#FF5D01"/>
<path d="M61.894 36.5333C66.1022 36.5333 69.2584 35.0465 70.5531 32.5149C70.5531 33.7205 70.6336 34.9662 70.8362 35.9306H77.755C77.4317 34.524 77.27 32.5952 77.27 30.0636V23.8752C77.27 18.0083 73.7898 15.2356 66.0619 15.2356C59.3044 15.2356 54.7726 18.0083 54.2466 22.5492H61.4489C61.6917 20.5801 63.3505 19.4951 66.0619 19.4951C68.7318 19.4951 70.2291 20.5801 70.2291 22.8305V23.4332L62.9057 24.0761C59.3448 24.4379 57.3217 25.0405 55.9055 26.005C54.4085 27.0095 53.6396 28.5367 53.6396 30.4253C53.6396 34.2026 56.7957 36.5333 61.894 36.5333ZM64.5647 32.3541C62.2175 32.3541 60.8015 31.43 60.8015 29.9431C60.8015 28.4162 61.9747 27.6124 64.9289 27.2508L70.3505 26.6882V27.8937C70.3505 30.5861 68.004 32.3541 64.5647 32.3541Z" fill="black"/>
<path d="M92.3485 36.5333C99.3894 36.5333 102.99 33.9214 102.99 29.702C102.99 26.2059 100.967 24.2771 96.0715 23.6341L89.9611 22.951C88.2216 22.7098 87.4931 22.2678 87.4931 21.3034C87.4931 20.1381 88.6664 19.6157 91.3369 19.6157C95.019 19.6157 97.5682 20.4596 99.6322 22.1072L102.909 18.8522C100.643 16.5215 96.7189 15.2356 91.8635 15.2356C85.0252 15.2356 81.2216 17.6466 81.2216 21.7052C81.2216 25.2415 83.5682 27.2105 88.4236 27.8534L93.9269 28.4964C96.1118 28.7777 96.7591 29.1796 96.7591 30.2243C96.7591 31.43 95.545 32.0729 92.7128 32.0729C88.5047 32.0729 85.6725 30.9477 83.7707 28.8581L80.0483 31.9121C82.5163 34.9662 86.7244 36.5333 92.3485 36.5333Z" fill="black"/>
<path d="M108.703 20.3792V28.8581C108.703 33.841 111.536 36.3726 117.605 36.3726C119.467 36.3726 120.923 36.1717 122.299 35.7698V30.5458C121.57 30.7066 120.68 30.8673 119.507 30.8673C116.958 30.8673 115.703 29.7422 115.703 27.3713V20.3792H122.339V15.8383H115.703V8.48462L108.703 11.0564V15.8383H104.171V20.3792H108.703Z" fill="black"/>
<path d="M132.389 15.8384H125.996V35.9306H132.996V28.4162C132.996 26.2461 133.481 24.2771 134.817 23.0314C135.869 22.0669 137.366 21.5446 139.47 21.5446C140.238 21.5446 140.846 21.6249 141.533 21.7053V15.3963C141.088 15.316 140.764 15.316 140.198 15.316C136.192 15.316 133.481 17.6065 132.389 21.3437V15.8384Z" fill="black"/>
<path d="M155.366 36.5333C162.771 36.5333 167.991 32.6355 167.991 25.8443C167.991 19.0933 162.771 15.2356 155.366 15.2356C147.921 15.2356 142.702 19.0933 142.702 25.8443C142.702 32.6355 147.921 36.5333 155.366 36.5333ZM155.366 31.9121C151.968 31.9121 149.823 29.7422 149.823 25.8443C149.823 21.9463 151.968 19.8568 155.366 19.8568C158.725 19.8568 160.869 21.9463 160.869 25.8443C160.869 29.7422 158.725 31.9121 155.366 31.9121Z" fill="black"/>
</g>
<defs>
<clipPath id="clip0_42_209">
<rect width="168" height="55" fill="white"/>
</clipPath>
</defs>
</svg>
