<svg width="354" height="315" viewBox="0 0 354 315" fill="none" xmlns="http://www.w3.org/2000/svg">
<path d="M249.052 39.0942C277.217 48.5803 312.754 43.302 333.243 64.8425C352.828 85.4325 356.986 119.078 351.722 147.034C346.539 174.556 321.147 192.707 304.874 215.497C291.209 234.634 281.293 256.373 263.055 271.207C244.871 285.998 222.594 293.795 200.19 300.647C176.925 307.761 153.375 311.551 129.063 312.181C100.291 312.927 68.2342 320.426 44.1375 304.69C20.2011 289.06 9.98959 258.164 3.62247 230.267C-2.23026 204.623 2.32023 177.878 9.41161 152.538C15.5151 130.728 30.6402 113.491 41.8148 93.7926C52.149 75.5762 58.956 55.6483 73.1242 40.2296C88.3587 23.6506 104.982 5.32255 127.063 1.0205C149.118 -3.27635 170.18 10.4513 191.621 17.1434C211.433 23.3269 229.383 32.4697 249.052 39.0942Z" fill="#F2B9CE" fill-opacity="0.2"/>
</svg>
