<svg width="378" height="200" viewBox="0 0 378 200" fill="none" xmlns="http://www.w3.org/2000/svg">
<path d="M253.15 30.5046C274.692 41.3641 280.465 57.1803 298.944 69.4144C323.147 85.4375 379.665 92.944 377.962 113.135C376.293 132.931 317.297 136.519 292.014 151.586C268.229 165.76 269.181 191.071 235.302 198.153C201.637 205.191 166.442 190.2 131.421 185.16C97.9254 180.338 58.4155 181.833 34.0407 169.185C9.59733 156.503 9.12333 136.805 4.31604 119.209C-0.264887 102.442 -3.43164 85.5765 6.7972 69.4682C17.5008 52.6122 37.3423 37.8323 63.4357 26.1081C91.613 13.4475 123.772 -0.832288 161.322 0.0378929C198.578 0.901294 226.653 17.1476 253.15 30.5046Z" fill="white" fill-opacity="0.2"/>
</svg>
