<svg width="177" height="220" viewBox="0 0 177 220" fill="none" xmlns="http://www.w3.org/2000/svg">
<path d="M173.169 27.1299C192.788 33.7377 217.543 30.0609 231.815 45.0656C245.458 59.4083 248.354 82.8449 244.687 102.319C241.077 121.49 223.389 134.134 212.054 150.009C202.535 163.339 195.627 178.482 182.923 188.816C170.256 199.119 154.739 204.55 139.133 209.323C122.927 214.278 106.522 216.919 89.5867 217.357C69.5446 217.877 47.2144 223.101 30.4292 212.14C13.7554 201.251 6.64229 179.73 2.20706 160.297C-1.86985 142.434 1.29994 123.804 6.23968 106.153C10.4913 90.9603 21.0271 78.953 28.8112 65.2318C36.0098 52.5426 40.7515 38.6611 50.6208 27.9208C61.2328 16.3721 72.812 3.60508 88.1937 0.608349C103.557 -2.38477 118.228 7.17768 133.164 11.8393C146.964 16.1466 159.468 22.5153 173.169 27.1299Z" fill="#F2B9CE" fill-opacity="0.2"/>
</svg>
