<svg width="360" height="309" viewBox="0 0 360 309" fill="none" xmlns="http://www.w3.org/2000/svg">
<path d="M241.095 47.1296C261.611 63.9075 267.11 88.3436 284.709 107.245C307.759 132.001 361.586 143.598 359.964 174.794C358.374 205.379 302.188 210.921 278.108 234.201C255.456 256.1 256.363 295.204 224.097 306.147C192.035 317.02 158.516 293.859 125.163 286.072C93.2623 278.623 55.6338 280.932 32.4197 261.392C9.14032 241.797 8.68889 211.364 4.11052 184.178C-0.252273 158.273 -3.26823 132.216 6.47352 107.328C16.6675 81.2859 35.564 58.4509 60.415 40.337C87.2505 20.7764 117.879 -1.28588 153.64 0.0585445C189.122 1.3925 215.86 26.493 241.095 47.1296Z" fill="#8BE6ED" fill-opacity="0.2"/>
</svg>
