<svg width="128" height="32" viewBox="0 0 128 32" fill="none" xmlns="http://www.w3.org/2000/svg">
<g clip-path="url(#clip0_42_133)">
<path d="M44.3273 19.2945C42.2182 19.2945 41.0545 17.9491 41.3455 16.0218C41.6727 14.0582 43.2727 12.7491 45.3455 12.7491C46.4364 12.7491 47.4182 13.2582 48 14.0218L50.0364 12.3491C48.9455 11.1127 47.3818 10.4945 45.7091 10.4945C42.2909 10.4945 39.3091 12.7855 38.8 16.0218C38.2909 19.2945 40.4727 21.5491 43.9273 21.5491C45.6727 21.5491 47.4182 20.8218 48.9455 19.6218L47.4909 17.9491C46.4364 18.8945 45.3455 19.2945 44.3273 19.2945ZM58 10.6036C58 10.6036 57.5636 10.5309 57.5273 10.5309C57.0545 10.4582 56.5455 10.4945 56.0727 10.5309C55.6364 10.5673 55.2 10.64 54.7636 10.7855C54.4 10.8945 54 11.04 53.6727 11.2582L53.7455 10.7491H51.2727L49.6 21.2945H52.0727L53.0545 15.1491C53.0909 14.7855 53.2364 14.4582 53.4182 14.1673C53.6 13.8764 53.8545 13.6218 54.1455 13.44C54.4364 13.2218 54.7273 13.0764 55.0545 12.9673C55.3818 12.8582 55.7091 12.7855 56.0727 12.7491C56.5455 12.7127 57.0545 12.7491 57.5273 12.8582H57.5636C57.6364 12.8582 58 10.6036 58 10.6036ZM66.6545 11.4036C65.9636 10.8218 64.9091 10.4945 63.6727 10.4945C60.5818 10.4945 57.7818 12.7127 57.2364 15.9855C56.7273 19.2582 58.8727 21.4764 61.8545 21.4764C63.2 21.4764 64.3273 21.2945 65.2727 20.64L65.2 21.2218H67.4545L69.0909 10.7491H66.7636L66.6545 11.4036ZM66.1455 15.9855C65.8182 17.9855 64.3273 19.3673 62.4 19.3673C60.4364 19.3673 59.3091 17.9127 59.6364 15.9491C59.9636 13.9855 61.5273 12.6036 63.4545 12.6036C65.3818 12.64 66.4364 13.9855 66.1455 15.9855ZM80.5091 10.7491L80.9818 7.76727L78.1455 9.80364L78 10.7855H74.8L75.1273 8.78545C75.3091 7.84 76.3273 7.87636 76.3273 7.87636H77.5273L77.8909 5.69455H76.5091H76.1818C72.8 5.69455 72.6909 8.31273 72.6909 8.31273L72.4727 9.54909L72.2909 10.7855H72.0727L69.3091 12.9673H71.9273L70.2545 23.6218H72.8L74.4727 12.9309H77.6727L76.3636 21.2945H78.8727L80.1818 12.9309H83.3091L83.6727 10.7491H80.5091ZM87.2364 16.0218C87.7455 12.7855 90.6909 10.4945 94.1455 10.4945C95.8182 10.4945 97.3818 11.1491 98.4727 12.3491L96.4364 14.0218C95.8545 13.2582 94.8727 12.7491 93.7818 12.7491C91.7091 12.7491 90.1091 14.0945 89.7818 16.0218C89.4909 17.9491 90.6545 19.2945 92.7636 19.2945C93.7818 19.2945 94.8727 18.8945 95.9273 17.9491L97.3818 19.6218C95.8545 20.8582 94.1091 21.5491 92.3636 21.5491C88.9091 21.5491 86.7273 19.2945 87.2364 16.0218ZM116.691 14.8945L115.709 21.2945H113.236L114.218 15.0764C114.473 13.6218 113.673 12.7491 112.255 12.7491C110.764 12.7491 109.273 13.6582 109.055 15.1491L108.073 21.2945H105.6L106.582 15.0764C106.8 13.6582 105.964 12.7855 104.618 12.7491C103.236 12.8218 101.636 13.6945 101.418 15.1491L100.436 21.2945H97.9636L99.6364 10.7491H102.109L102.036 11.2582C102.873 10.7491 103.818 10.5309 105.018 10.4945H105.236C106.764 10.4945 108 11.1127 108.655 12.1673C109.673 11.1127 111.236 10.4945 112.8 10.4945C115.491 10.4945 117.127 12.2764 116.691 14.8945ZM116.582 20.0218L118.109 18.1309C118.945 18.7855 120.545 19.2945 121.891 19.2945C123.127 19.2945 124.364 19.04 124.509 18.2036C124.618 17.5491 123.418 17.3309 122.073 17.1127C119.273 16.64 117.855 16.0582 118.145 13.9491C118.582 11.2945 121.309 10.5309 123.564 10.5309C125.164 10.5309 126.836 11.0764 127.964 11.84L126.436 13.7309C125.564 13.1855 124.436 12.7855 123.164 12.7855C121.673 12.7855 120.8 13.2218 120.691 13.9127C120.618 14.3855 121.018 14.5673 122.764 14.8582C125.309 15.2945 127.418 15.6945 127.018 18.1309C126.691 20.3491 124.436 21.5855 121.491 21.5855C119.855 21.5491 117.745 20.9673 116.582 20.0218ZM27.8182 0.349091H3.27273C1.45455 0.349091 0 1.80364 0 3.62182V28.1673C0 29.9855 1.45455 31.44 3.27273 31.44H27.8182C29.6 31.44 31.0909 29.9855 31.0909 28.1673V3.62182C31.0909 1.80364 29.6364 0.349091 27.8182 0.349091ZM15.4909 19.2945C16.5091 19.2945 17.6 18.8945 18.6545 17.9491L20.1091 19.6218C18.5818 20.8582 16.8364 21.5491 15.0909 21.5491C11.6364 21.5491 9.45455 19.2582 9.96364 16.0218C10.4727 12.7855 13.4182 10.4945 16.8727 10.4945C18.5455 10.4945 20.1091 11.1491 21.2 12.3491L19.1636 14.0218C18.5818 13.2582 17.6 12.7491 16.5091 12.7491C14.4364 12.7491 12.8364 14.0945 12.5091 16.0218C12.2182 17.9491 13.3818 19.2945 15.4909 19.2945Z" fill="#E5422B"/>
</g>
<defs>
<clipPath id="clip0_42_133">
<rect width="128" height="32" fill="white"/>
</clipPath>
</defs>
</svg>
