<svg width="26" height="25" viewBox="0 0 26 25" fill="none" xmlns="http://www.w3.org/2000/svg">
<path d="M13.0014 1.05657e-06C5.8688 -0.00282051 0.0917358 5.64596 0.0917358 12.6181C0.0917358 18.1314 3.70564 22.818 8.73858 24.5392C9.41637 24.7057 9.31254 24.2345 9.31254 23.9128V21.7261C5.39867 22.1747 5.24004 19.6409 4.97758 19.2177C4.44688 18.3317 3.19226 18.106 3.5672 17.6828C4.45842 17.2341 5.36694 17.7956 6.41968 19.3165C7.18111 20.4197 8.66648 20.2335 9.41925 20.0501C9.58365 19.387 9.93552 18.7945 10.4201 18.3346C6.36488 17.6235 4.67474 15.2026 4.67474 12.3246C4.67474 10.9279 5.14486 9.64412 6.06781 8.60861C5.47943 6.90156 6.12261 5.43999 6.20913 5.22272C7.88486 5.076 9.62691 6.3965 9.76247 6.5009C10.7143 6.24978 11.8016 6.11716 13.0187 6.11716C14.2416 6.11716 15.3319 6.25542 16.2923 6.50936C16.6182 6.26671 18.2334 5.13244 19.7909 5.27069C19.8745 5.48795 20.5033 6.91567 19.9495 8.60014C20.884 9.63848 21.3599 10.9336 21.3599 12.3331C21.3599 15.2167 19.6582 17.6404 15.5914 18.3402C15.9398 18.6753 16.2164 19.075 16.405 19.5158C16.5937 19.9567 16.6907 20.4299 16.6903 20.9078V24.0821C16.7134 24.336 16.6903 24.5872 17.123 24.5872C22.2309 22.9027 25.9082 18.1822 25.9082 12.6209C25.9082 5.64596 20.1283 1.05657e-06 13.0014 1.05657e-06Z" fill="#57B79D"/>
</svg>
