<svg width="78" height="74" viewBox="0 0 78 74" fill="none" xmlns="http://www.w3.org/2000/svg">
<path fill-rule="evenodd" clip-rule="evenodd" d="M7.99755 2.14341C10.3284 2.06984 12.2776 3.89973 12.3511 6.23058C12.6841 16.7788 12.744 27.3626 12.8036 37.8806C12.8189 40.5905 12.8343 43.296 12.8542 45.9954C13.9803 44.297 15.3904 42.2089 17.0162 40.3548C19.0182 38.0717 21.7408 35.6662 25.3329 34.6761C27.3493 34.1203 29.4253 34.1024 31.3824 34.8853C33.3127 35.6574 34.6875 37.0325 35.6485 38.4771C37.4582 41.1972 38.2498 44.8517 38.7032 48.0169C39.0847 50.681 39.2886 53.5449 39.4656 56.0301C39.5063 56.6022 39.5456 57.1542 39.5853 57.6791C39.6953 59.1329 39.8067 60.3747 39.951 61.3943C40.1046 62.4806 40.2564 63.0054 40.3274 63.1737C41.2332 65.3226 40.2254 67.7989 38.0765 68.7047C35.9276 69.6105 33.4513 68.6028 32.5455 66.4539C32.0333 65.2387 31.7651 63.8205 31.5892 62.5771C31.4039 61.267 31.2761 59.7925 31.1644 58.3162C31.1188 57.7124 31.0753 57.1055 31.0319 56.4978C30.8554 54.0303 30.678 51.5499 30.3435 49.2143C29.9106 46.1914 29.3029 44.1852 28.6174 43.1548C28.4186 42.8559 28.287 42.7535 28.2458 42.7271C28.181 42.7164 27.9815 42.7059 27.5769 42.8174C26.2938 43.1711 24.9061 44.166 23.3658 45.9226C22.0224 47.4546 20.8623 49.203 19.6701 50.9997C19.4954 51.263 19.32 51.5273 19.1432 51.7922C17.0235 54.9681 15.2907 58.1488 14.036 61.5689C13.9949 61.6809 13.9191 61.9192 13.7882 62.3433L13.7577 62.4421C13.65 62.7912 13.517 63.2224 13.3884 63.604C13.3849 63.6145 13.381 63.6262 13.3767 63.6387C13.2841 63.915 13.0332 64.6628 12.6575 65.269C12.5612 65.4245 12.2369 65.9438 11.6483 66.4157C11.0535 66.8924 9.12734 68.0502 6.91465 66.8276C5.39911 65.9902 4.96465 64.5776 4.89186 64.3409C4.89008 64.3351 4.88851 64.33 4.88714 64.3256C4.75016 63.8863 4.70691 63.5068 4.68926 63.3196C4.39079 60.1543 4.41616 56.8484 4.43945 53.8129C4.44846 52.6393 4.45716 51.5061 4.44671 50.4371C4.40547 46.2172 4.38166 42.0124 4.35791 37.8175C4.29861 27.3423 4.23966 16.929 3.91039 6.497C3.83682 4.16615 5.6667 2.21698 7.99755 2.14341ZM28.2703 42.7334C28.27 42.734 28.2631 42.7327 28.2504 42.7279C28.2643 42.7305 28.2706 42.7329 28.2703 42.7334ZM28.241 42.7241C28.2349 42.7215 28.232 42.7197 28.232 42.7195C28.2321 42.7193 28.2351 42.7206 28.241 42.7241Z" fill="#F2B9CE" stroke="#121212" stroke-width="2" stroke-linecap="round"/>
<path fill-rule="evenodd" clip-rule="evenodd" d="M47.7808 32.7743C49.9381 32.6911 51.7476 34.5671 51.8224 36.9644C52.1109 46.2086 52.6655 55.3599 53.3572 64.5843C53.5365 66.9747 51.9379 69.0741 49.7868 69.2733C47.6356 69.4725 45.7464 67.6961 45.5671 65.3057C44.8688 55.9934 44.3043 46.6939 44.01 37.2655C43.9352 34.8682 45.6234 32.8574 47.7808 32.7743Z" fill="#F2B9CE" stroke="#121212" stroke-width="2" stroke-linecap="round"/>
<path fill-rule="evenodd" clip-rule="evenodd" d="M51.4736 25.2224C51.4728 25.309 51.4724 25.4137 51.4724 25.539C51.4724 25.5966 51.4724 25.6552 51.4725 25.7141C51.4729 26.0905 51.4733 26.48 51.458 26.7083C51.4544 26.7621 51.4462 26.8716 51.4271 27.0048C51.427 27.0055 51.4269 27.0069 51.4266 27.0089C51.4201 27.0594 51.3623 27.5058 51.1338 27.998L51.1319 28.0023C51.0464 28.1866 50.6195 29.107 49.5372 29.6299C48.6952 30.0366 47.9051 30.0229 47.259 29.8412C46.4236 29.8175 45.6383 29.4706 45.0545 28.9041C44.4507 28.3184 44.2342 27.6703 44.1694 27.4643C44.0822 27.1868 44.0486 26.9575 44.0344 26.8422C44.0051 26.6058 44.0071 26.419 44.0081 26.3535C44.0095 26.2655 44.0139 26.1946 44.0169 26.1529C44.0229 26.0698 44.0306 26.0037 44.0344 25.973C44.0856 25.5518 44.1715 25.1799 44.2579 24.8717C44.2544 24.3494 44.3673 23.8323 44.5863 23.3621C44.5948 23.322 44.5998 23.2983 44.6002 23.2966C44.9954 21.4455 46.7777 20.2739 48.581 20.6796C49.6919 20.9295 50.5516 21.7198 50.9556 22.7226C51.1076 22.9621 51.1885 23.1542 51.2197 23.2282L51.2201 23.2291C51.315 23.4543 51.3658 23.6421 51.3893 23.7359C51.4653 24.0386 51.4835 24.2954 51.4854 24.3227C51.4855 24.3238 51.4855 24.3245 51.4856 24.3249C51.4919 24.405 51.4946 24.4715 51.4959 24.5113C51.4986 24.5949 51.4986 24.6713 51.4979 24.7308C51.4965 24.8497 51.4908 25.0226 51.4736 25.2224Z" fill="#F2B9CE" stroke="#121212" stroke-width="2" stroke-linecap="round"/>
<path fill-rule="evenodd" clip-rule="evenodd" d="M70.5374 1.24006C72.8687 1.18545 74.803 3.03113 74.8576 5.3625L75.9341 51.3227C75.9887 53.6541 74.143 55.5883 71.8117 55.6429C69.4803 55.6975 67.5461 53.8518 67.4915 51.5205L66.4149 5.56026C66.3603 3.22889 68.206 1.29467 70.5374 1.24006Z" fill="#F2B9CE" stroke="#121212" stroke-width="2" stroke-linecap="round"/>
<path fill-rule="evenodd" clip-rule="evenodd" d="M69.1504 66.961C69.1502 66.9743 69.1503 66.9846 69.1503 66.9919L69.1503 66.9959C69.1503 66.9842 69.1503 66.9726 69.1504 66.961ZM69.4528 70.5192C69.6119 70.7006 69.7864 70.8767 69.9766 71.0419C70.384 71.3956 71.1941 71.9872 72.319 72.0843C73.741 72.207 75.1824 71.4744 76.0409 69.9815C76.7092 68.8193 76.7792 67.6177 76.7792 66.9959C76.7792 66.3384 76.654 65.7147 76.4295 65.1546C76.3916 64.6151 76.2755 63.9808 75.9962 63.3337C75.6609 62.5569 75.0059 61.5991 73.8869 61.0832C73.2078 60.3642 72.3018 59.9252 71.3069 59.9252C69.2003 59.9252 67.4925 61.8933 67.4925 64.3211C67.4925 64.2987 67.4925 64.2563 67.4547 64.7968C67.4318 65.1258 67.3874 65.7911 67.442 66.4897C67.4777 66.9466 67.6237 68.7387 68.9454 70.0749C69.1124 70.2437 69.282 70.3911 69.4528 70.5192Z" fill="#F2B9CE" stroke="#121212" stroke-width="2" stroke-linecap="round"/>
</svg>
