<svg width="81" height="78" viewBox="0 0 81 78" fill="none" xmlns="http://www.w3.org/2000/svg">
<g filter="url(#filter0_d_9_251)">
<path d="M13.8325 43.7936C13.8222 42.1562 13.8129 40.5166 13.8036 38.875L13.8035 38.8687C13.744 28.3549 13.684 17.7602 13.3506 7.19903C13.2597 4.31617 10.8489 2.05292 7.96601 2.14391C5.08315 2.2349 2.81989 4.64569 2.91089 7.52855C3.23969 17.9455 3.29862 28.3458 3.35793 38.8231L3.35793 38.8239C3.38168 43.0182 3.40549 47.2249 3.44676 51.4469C3.4571 52.5056 3.4485 53.6297 3.43948 54.8052L3.4393 54.8293C3.41612 57.8495 3.39043 61.1975 3.69368 64.4135C3.7142 64.6311 3.76578 65.0887 3.93248 65.6233L4.88714 65.3256L3.93249 65.6233L3.936 65.6347L3.93605 65.6349L3.93625 65.6356C4.02774 65.933 4.562 67.6702 6.43103 68.7029C9.18058 70.2221 11.5647 68.7642 12.2737 68.1959C12.9961 67.6169 13.392 66.9822 13.5075 66.7958C13.9449 66.09 14.2252 65.2538 14.3201 64.9707L14.3248 64.9568L14.3248 64.9568L14.336 64.9234L14.3361 64.9233C14.4688 64.5296 14.6048 64.0885 14.7114 63.7428L14.7132 63.7369L14.7132 63.7368L14.7437 63.6382C14.7437 63.6382 14.7437 63.6382 14.7437 63.6382C14.7437 63.6381 14.7437 63.6381 14.7437 63.6381C14.8778 63.2038 14.9449 62.995 14.9748 62.9133L14.1947 62.6272L14.9748 62.9133C16.1955 59.5859 17.8867 56.4761 19.9749 53.3473C20.1526 53.0812 20.3287 52.8157 20.5033 52.5526C21.7029 50.7448 22.8263 49.0546 24.1177 47.5819C25.5987 45.8929 26.8254 45.0649 27.8334 44.7841C28.3708 45.6451 28.9354 47.4359 29.3536 50.3561C29.6822 52.6503 29.8575 55.0944 30.0344 57.5691L30.0344 57.5692C30.0779 58.1766 30.1214 58.7855 30.1673 59.3916C30.2792 60.8707 30.4089 62.3727 30.5991 63.7172C30.7778 64.9802 31.0597 66.5036 31.624 67.8423C32.7443 70.5001 35.8071 71.7465 38.4649 70.6262C41.1227 69.5059 42.3691 66.4432 41.2489 63.7854C41.2505 63.7891 41.2396 63.7628 41.2191 63.6934C41.1994 63.6271 41.1742 63.5324 41.1449 63.4048C41.0864 63.1496 41.0148 62.7753 40.9411 62.2542C40.8017 61.2691 40.6923 60.0549 40.5825 58.6036C40.543 58.0814 40.5038 57.5316 40.4631 56.9591L40.4619 56.9423C40.2856 54.4673 40.0797 51.5744 39.6931 48.8752C39.2371 45.6916 38.4235 41.8429 36.4811 38.9232C35.4406 37.3591 33.9205 35.8235 31.7538 34.9568C29.5538 34.0768 27.2484 34.1108 25.0672 34.712C21.2016 35.7775 18.321 38.3501 16.2644 40.6955C15.3858 41.6974 14.5711 42.7624 13.8325 43.7936ZM27.8629 44.6464C27.8586 44.6445 27.8516 44.6414 27.8424 44.637L27.9783 44.3739L27.9082 44.6266L27.8985 44.6614C27.8901 44.6581 27.8814 44.6544 27.8723 44.6505C27.8693 44.6492 27.8664 44.6479 27.8634 44.6466L27.8629 44.6464ZM28.202 43.9931L28.2147 43.9157L28.2169 43.9116L28.202 43.9931Z" fill="#F2B9CE" stroke="#121212" stroke-width="2" stroke-linecap="round"/>
<path d="M52.8219 37.9332C52.733 35.0837 50.5517 32.6667 47.7422 32.775C44.9406 32.883 42.9217 35.4506 43.0105 38.2967C43.3054 47.7442 43.8709 57.0591 44.5699 66.3804C44.7833 69.2257 47.0736 71.5288 49.879 71.269C52.6657 71.0109 54.5672 68.3464 54.3544 65.5095C53.6634 56.2942 53.1099 47.1583 52.8219 37.9332Z" fill="#F2B9CE" stroke="#121212" stroke-width="2" stroke-linecap="round"/>
<path d="M51.5411 27.7139L52.4557 27.7752C52.4514 27.84 52.4414 27.9748 52.4179 28.1404C52.4053 28.2376 52.3297 28.7966 52.041 29.4188L51.5411 27.7139ZM51.5411 27.7139L52.4557 27.7752C52.4734 27.5125 52.4729 27.0979 52.4725 26.7461L52.4725 26.7131L52.4724 26.539C52.4724 26.4339 52.4727 26.3441 52.4732 26.2679L51.5411 27.7139ZM51.4266 28.0089L51.4272 28.009L51.4266 28.0089ZM51.4266 28.0089L51.4271 28.0048C51.4462 27.8716 51.4544 27.7621 51.458 27.7083C51.4733 27.48 51.4729 27.0905 51.4725 26.7141L51.4724 26.539C51.4724 26.4137 51.4728 26.309 51.4736 26.2224L51.4266 28.0089ZM52.039 29.423L52.0409 29.419L52.4827 25.2497C52.4787 25.1923 52.4546 24.8724 52.3592 24.4923C52.3289 24.3716 52.2637 24.1305 52.1418 23.8412C52.1418 23.8411 52.1417 23.841 52.1417 23.8408L52.1415 23.8404L52.1413 23.84C52.1053 23.7546 52.0135 23.5372 51.8482 23.2645C51.3159 22.0174 50.2215 21.0237 48.8005 20.704C46.4449 20.174 44.1537 21.6982 43.6306 24.0495C43.4005 24.5801 43.2741 25.1526 43.2593 25.7328C43.175 26.0509 43.0933 26.4282 43.0417 26.8521C43.037 26.891 43.0271 26.975 43.0195 27.0811L44.0169 27.1529L43.0195 27.0811C43.0156 27.1344 43.01 27.2252 43.0082 27.3379C43.0069 27.4228 43.0045 27.6621 43.0419 27.965L43.9244 27.8558L43.0419 27.965C43.0603 28.1135 43.1034 28.4078 43.2155 28.7642C43.2988 29.0292 43.5778 29.8647 44.3581 30.6218L44.8871 30.0767L44.3581 30.6218C45.0865 31.3285 46.0596 31.7752 47.1073 31.8355C47.9329 32.0425 48.9317 32.033 49.9722 31.5303C51.3763 30.852 51.9279 29.6627 52.0386 29.424L52.039 29.423L52.039 29.423Z" fill="#F2B9CE" stroke="#121212" stroke-width="2" stroke-linecap="round"/>
<path d="M75.8573 6.33908C75.7897 3.45558 73.3975 1.17279 70.5139 1.24033C67.6304 1.30787 65.3477 3.70017 65.4152 6.58367L66.4917 52.5439C66.5593 55.4274 68.9516 57.7102 71.8351 57.6426C74.7186 57.5751 77.0014 55.1828 76.9338 52.2993L75.8573 6.33908Z" fill="#F2B9CE" stroke="#121212" stroke-width="2" stroke-linecap="round"/>
<path d="M71.3069 59.9252C68.5443 59.9252 66.5287 62.4336 66.4929 65.2451C66.4924 65.2507 66.492 65.2561 66.4915 65.2611C66.4859 65.3253 66.4759 65.4585 66.4572 65.7271C66.4339 66.0603 66.3842 66.7894 66.4451 67.5676L66.4457 67.5761C66.484 68.0664 66.6485 70.1748 68.2345 71.7781C68.4085 71.954 68.587 72.1127 68.7693 72.2552C68.9374 72.4411 69.121 72.6234 69.321 72.797C69.7961 73.2095 70.8021 73.9571 72.233 74.0806C74.0746 74.2395 75.872 73.2811 76.9078 71.48C77.7052 70.0932 77.7792 68.6831 77.7792 67.9959C77.7792 67.2677 77.6505 66.5693 77.4145 65.9301C77.3598 65.3376 77.2207 64.6473 76.9144 63.9375C76.5357 63.0601 75.7879 61.9271 74.4793 61.2594C73.6478 60.4435 72.5411 59.9252 71.3069 59.9252ZM66.4929 65.3456C66.4923 65.3279 66.4925 65.3122 66.4925 65.321C66.4925 65.321 66.4925 65.3211 66.4925 65.3211C66.4925 65.3211 66.4925 65.3211 66.4925 65.3211L67.4903 65.3212C67.4868 65.3534 67.4778 65.4658 67.4547 65.7968C67.4459 65.9232 67.4339 66.0994 67.4256 66.3079C67.36 66.3035 67.2922 66.2923 67.2227 66.2729C66.9364 66.1928 66.7716 66.0126 66.7019 65.9228C66.6512 65.8575 66.6142 65.7923 66.5877 65.7362C66.5495 65.6556 66.5329 65.5937 66.5284 65.5771C66.5282 65.576 66.5279 65.5751 66.5277 65.5745C66.5134 65.5221 66.5065 65.4799 66.5035 65.4605C66.4973 65.4196 66.4952 65.3874 66.4945 65.3773C66.4935 65.3629 66.4931 65.3516 66.4929 65.3456Z" fill="#F2B9CE" stroke="#121212" stroke-width="2" stroke-linecap="round"/>
</g>
<defs>
<filter id="filter0_d_9_251" x="1.9082" y="0.238869" width="78.871" height="76.8589" filterUnits="userSpaceOnUse" color-interpolation-filters="sRGB">
<feFlood flood-opacity="0" result="BackgroundImageFix"/>
<feColorMatrix in="SourceAlpha" type="matrix" values="0 0 0 0 0 0 0 0 0 0 0 0 0 0 0 0 0 0 127 0" result="hardAlpha"/>
<feOffset dx="2" dy="2"/>
<feComposite in2="hardAlpha" operator="out"/>
<feColorMatrix type="matrix" values="0 0 0 0 0 0 0 0 0 0 0 0 0 0 0 0 0 0 1 0"/>
<feBlend mode="normal" in2="BackgroundImageFix" result="effect1_dropShadow_9_251"/>
<feBlend mode="normal" in="SourceGraphic" in2="effect1_dropShadow_9_251" result="shape"/>
</filter>
</defs>
</svg>
