<svg width="554" height="521" viewBox="0 0 554 521" fill="none" xmlns="http://www.w3.org/2000/svg">
<g filter="url(#filter0_d_79_108)">
<path fill-rule="evenodd" clip-rule="evenodd" d="M57.3938 15.3819C74.121 14.8539 88.109 27.9859 88.637 44.7131C91.0264 120.411 91.4565 196.365 91.884 271.847C91.9941 291.294 92.1041 310.71 92.2473 330.082C100.328 317.894 110.448 302.909 122.116 289.603C136.483 273.219 156.021 255.955 181.8 248.85C196.27 244.861 211.168 244.733 225.213 250.351C239.066 255.892 248.932 265.76 255.829 276.128C268.816 295.649 274.497 321.874 277.75 344.59C280.489 363.708 281.952 384.261 283.222 402.095C283.514 406.201 283.796 410.162 284.081 413.929C284.87 424.363 285.67 433.274 286.705 440.591C287.808 448.387 288.897 452.153 289.406 453.361C295.907 468.782 288.675 486.554 273.253 493.054C257.832 499.554 240.061 492.322 233.56 476.901C229.884 468.18 227.96 458.003 226.698 449.08C225.368 439.678 224.451 429.096 223.649 418.501C223.321 414.168 223.01 409.813 222.698 405.452C221.432 387.744 220.159 369.944 217.758 353.182C214.651 331.489 210.29 317.091 205.371 309.697C203.944 307.552 203 306.817 202.704 306.628C202.239 306.551 200.807 306.476 197.904 307.276C188.696 309.814 178.737 316.954 167.683 329.56C158.042 340.554 149.717 353.101 141.161 365.995C139.907 367.885 138.648 369.782 137.38 371.682C122.168 394.474 109.732 417.3 100.728 441.844C100.434 442.648 99.8891 444.358 98.9497 447.401L98.7307 448.111C97.9582 450.616 97.0038 453.711 96.081 456.449C96.0554 456.525 96.0275 456.608 95.9972 456.698C95.3321 458.681 93.5317 464.047 90.8354 468.398C90.1441 469.514 87.8173 473.24 83.5928 476.627C79.3243 480.048 65.5017 488.357 49.6225 479.583C38.7463 473.574 35.6284 463.436 35.1061 461.737C35.0932 461.696 35.082 461.659 35.0722 461.628C34.0892 458.475 33.7788 455.751 33.6521 454.408C31.5102 431.693 31.6922 407.968 31.8594 386.184C31.924 377.762 31.9864 369.63 31.9115 361.958C31.6155 331.674 31.4447 301.499 31.2742 271.394C30.8487 196.22 30.4256 121.49 28.0626 46.6251C27.5346 29.8979 40.6667 15.9099 57.3938 15.3819ZM202.88 306.673C202.878 306.677 202.828 306.668 202.737 306.634C202.837 306.652 202.882 306.669 202.88 306.673ZM202.669 306.606C202.626 306.587 202.605 306.575 202.605 306.573C202.605 306.571 202.627 306.581 202.669 306.606Z" fill="#F2B9CE" stroke="#121212" stroke-width="2" stroke-linecap="round"/>
<path fill-rule="evenodd" clip-rule="evenodd" d="M342.895 235.202C358.377 234.605 371.363 248.068 371.9 265.272C373.97 331.612 377.95 397.286 382.914 463.484C384.2 480.639 372.729 495.705 357.291 497.134C341.853 498.564 328.295 485.816 327.009 468.661C321.997 401.832 317.946 335.095 315.835 267.433C315.298 250.229 327.413 235.799 342.895 235.202Z" fill="#F2B9CE" stroke="#121212" stroke-width="2" stroke-linecap="round"/>
<path fill-rule="evenodd" clip-rule="evenodd" d="M369.396 181.007C369.391 181.628 369.388 182.38 369.388 183.279C369.388 183.692 369.388 184.113 369.388 184.535C369.391 187.237 369.394 190.032 369.284 191.67C369.258 192.056 369.2 192.842 369.063 193.798C369.062 193.803 369.061 193.813 369.059 193.827C369.012 194.19 368.597 197.394 366.958 200.926L366.944 200.956C366.33 202.279 363.267 208.884 355.5 212.637C349.458 215.556 343.787 215.458 339.151 214.153C333.155 213.983 327.52 211.494 323.33 207.428C318.997 203.225 317.443 198.574 316.978 197.095C316.352 195.104 316.112 193.459 316.009 192.631C315.799 190.935 315.813 189.594 315.821 189.124C315.831 188.492 315.862 187.984 315.884 187.685C315.927 187.088 315.982 186.614 316.009 186.393C316.377 183.371 316.993 180.702 317.613 178.49C317.589 174.742 318.399 171.031 319.97 167.657C320.031 167.368 320.067 167.199 320.07 167.186C322.906 153.902 335.697 145.494 348.638 148.405C356.61 150.199 362.78 155.871 365.679 163.067C366.77 164.786 367.351 166.164 367.574 166.696L367.577 166.702C368.258 168.318 368.622 169.666 368.791 170.339C369.337 172.512 369.467 174.355 369.481 174.55C369.482 174.558 369.482 174.563 369.482 174.566C369.528 175.141 369.547 175.618 369.556 175.904C369.576 176.504 369.576 177.052 369.571 177.479C369.561 178.332 369.52 179.573 369.396 181.007Z" fill="#F2B9CE" stroke="#121212" stroke-width="2" stroke-linecap="round"/>
<path fill-rule="evenodd" clip-rule="evenodd" d="M506.206 8.89911C522.937 8.50722 536.818 21.7526 537.209 38.4835L544.935 368.313C545.327 385.044 532.082 398.925 515.351 399.317C498.62 399.709 484.739 386.463 484.347 369.732L476.621 39.9027C476.23 23.1718 489.475 9.29101 506.206 8.89911Z" fill="#F2B9CE" stroke="#121212" stroke-width="2" stroke-linecap="round"/>
<path fill-rule="evenodd" clip-rule="evenodd" d="M496.252 480.54C496.251 480.636 496.251 480.71 496.251 480.762L496.252 480.791C496.252 480.707 496.252 480.624 496.252 480.54ZM498.423 506.075C499.565 507.377 500.817 508.641 502.182 509.827C505.105 512.365 510.919 516.61 518.992 517.307C529.197 518.188 539.54 512.931 545.701 502.217C550.498 493.876 551 485.253 551 480.791C551 476.072 550.101 471.596 548.49 467.577C548.218 463.705 547.385 459.153 545.381 454.509C542.975 448.935 538.274 442.061 530.244 438.359C525.37 433.199 518.869 430.048 511.729 430.048C496.61 430.048 484.354 444.173 484.354 461.596C484.354 461.435 484.354 461.13 484.084 465.009C483.919 467.37 483.601 472.144 483.992 477.158C484.249 480.437 485.296 493.298 494.782 502.887C495.98 504.098 497.197 505.156 498.423 506.075Z" fill="#F2B9CE" stroke="#121212" stroke-width="2" stroke-linecap="round"/>
</g>
<defs>
<filter id="filter0_d_79_108" x="27.0472" y="7.89062" width="526.953" height="512.511" filterUnits="userSpaceOnUse" color-interpolation-filters="sRGB">
<feFlood flood-opacity="0" result="BackgroundImageFix"/>
<feColorMatrix in="SourceAlpha" type="matrix" values="0 0 0 0 0 0 0 0 0 0 0 0 0 0 0 0 0 0 127 0" result="hardAlpha"/>
<feOffset dx="2" dy="2"/>
<feComposite in2="hardAlpha" operator="out"/>
<feColorMatrix type="matrix" values="0 0 0 0 0 0 0 0 0 0 0 0 0 0 0 0 0 0 1 0"/>
<feBlend mode="normal" in2="BackgroundImageFix" result="effect1_dropShadow_79_108"/>
<feBlend mode="normal" in="SourceGraphic" in2="effect1_dropShadow_79_108" result="shape"/>
</filter>
</defs>
</svg>
