<svg width="88" height="51" viewBox="0 0 88 51" fill="none" xmlns="http://www.w3.org/2000/svg">
<path d="M12.8214 36.3431C12.1855 36.4403 12.633 35.55 11.8244 35.6691C11.5732 35.7067 11.1767 35.2208 10.8863 34.948C10.5663 34.6543 10.1505 34.4372 9.68517 34.321V33.8507C10.4702 34.2928 11.4279 34.2865 12.2954 34.4339C13.1629 34.5812 14.1521 35.1894 15.1648 34.6408C15.1991 34.4862 15.1635 34.3269 15.0643 34.1913C14.965 34.0558 14.8087 33.9528 14.6231 33.9009C12.6605 33.0607 11.2474 31.7064 9.44962 30.7094C8.92756 30.4241 9.02178 29.8002 8.48795 29.6309C7.09449 29.1795 6.52533 28.1512 5.74028 27.2734C6.05038 26.0381 5.06119 24.8938 5.37521 23.6837C3.85615 22.6084 5.01411 21.4891 5.04551 20.3919C5.37523 20.3919 5.58328 20.4201 5.74814 20.1975C5.69319 19.4451 5.62644 18.5422 6.56457 18.0688C7.12196 17.7866 7.34962 17.3728 7.74215 17.0467C8.13467 16.7207 8.50363 16.3696 8.9511 16.0592C10.1797 15.2064 11.6988 14.7769 13.0805 14.1781C13.681 13.9117 14.4739 13.8646 15.0431 13.4383C15.679 12.9617 16.6485 13.3254 17.2962 12.874C17.4414 12.7736 17.5788 12.667 17.7201 12.5604H21.8691L22.3794 11.9334C22.6149 11.9334 22.7444 11.9334 22.874 11.9334C25.2958 11.761 27.7609 12.3002 30.1513 11.6199C30.2408 11.594 30.3364 11.5848 30.431 11.593C30.5255 11.6011 30.6165 11.6264 30.6969 11.6669C31.0895 12.087 31.6508 11.9021 32.1375 11.9146C33.1149 11.9428 34.1001 11.9585 35.0736 11.9146C36.5024 11.8551 37.7192 12.2908 38.9988 12.8551H41.1852C41.4168 12.9503 41.6374 13.0615 41.8446 13.1875C43.0418 13.7894 44.7454 13.8396 45.3067 15.15C45.3325 15.1975 45.3707 15.2399 45.4188 15.2746C45.4668 15.3092 45.5237 15.3351 45.5854 15.3507C46.5086 15.5417 47.3185 15.9855 47.8739 16.6047C48.494 17.2003 49.5577 17.3446 50.0837 18.1252C49.7383 18.6833 50.7236 19.2444 50.4095 19.7617C50.017 20.3887 49.9425 20.8559 50.5312 21.3104C50.3232 21.5581 50.1897 21.7211 50.0798 21.8465C50.0091 22.1412 50.2761 22.2447 50.4253 22.3858C49.7344 23.0692 50.2329 23.8687 50.0327 24.6556C49.8443 24.8938 49.3104 25.0098 49.2869 25.4676L49.7305 25.9786C48.969 27.1542 48.1839 28.3487 47.4263 29.5557C47.3046 29.7469 47.5362 29.7783 47.7286 29.7751C47.6383 30.3739 46.9631 29.9194 46.5314 30.2548L45.656 31.3521C44.8474 31.1609 44.2548 31.7691 43.5404 31.7095L42.092 32.8632C40.6418 33.0837 39.2575 33.5231 38.0136 34.158C37.5543 34.158 37.0402 34.0451 36.6516 34.1768C35.2934 34.6439 33.8254 34.7505 32.4319 35.0985C32.6673 34.7155 33.0281 34.3905 33.476 34.158H34.2179C34.9245 33.4557 35.894 32.9447 36.6947 32.2769C37.2286 31.838 37.3777 31.6343 37.3306 31.0229C36.7229 31.5187 35.9463 31.8609 35.0972 32.0073C33.8659 32.2444 32.5963 32.329 31.3328 32.2581C30.7243 32.26 30.1267 32.3875 29.5979 32.6281C29.3457 32.4546 29.0499 32.3263 28.7304 32.2519C27.9061 32.1014 27.3056 32.6155 26.5401 32.5967C25.496 32.5685 24.4519 32.5967 23.3999 32.5967C23.5883 32.0606 22.8112 31.7314 22.976 31.1546C23.056 30.6891 23.0666 30.2176 23.0074 29.7501C25.5156 28.0697 28.3732 26.9693 30.8226 25.3923H31.4192C32.7067 24.2637 34.4966 23.8248 36.153 23.1978L37.0598 22.4736V21.0816C35.5133 20.4546 34.1865 20.5361 32.8441 21.3951C32.0316 21.9155 30.956 22.1506 30.2613 22.8404C30.1592 22.9407 29.7667 22.8404 29.5586 22.8404C28.9738 23.1256 28.6951 23.6179 28.0435 23.8122C27.7568 23.9047 27.4991 24.0464 27.2888 24.2274C27.0785 24.4084 26.9207 24.6241 26.8267 24.8593C26.1829 25.3077 25.5117 25.4017 24.9779 25.7999C24.5069 26.1416 24.3734 26.847 23.8474 26.8971C22.976 26.9755 23.294 27.9568 22.2773 27.8753C22.3912 26.5492 21.453 25.477 20.7072 24.3859C20.2519 23.7182 19.7495 23.1319 19.8869 22.3576C18.9056 22.2008 18.9016 21.5236 18.513 20.975C18.2946 21.017 18.0664 21.0149 17.8492 20.969C17.6319 20.923 17.4325 20.8346 17.2687 20.7116C16.833 21.1882 15.8949 20.7837 15.7496 21.1568C15.2904 22.0535 15.7497 22.5864 16.0637 23.0974C16.4562 23.7495 17.3551 24.3232 17.4257 24.9785C17.4964 25.6337 18.2343 25.8563 18.3285 26.43C18.461 26.9497 18.6705 27.4548 18.9527 27.9349C19.6474 29.377 20.2165 30.8505 20.2362 32.4055C20.2671 32.7989 20.4094 33.1816 20.6523 33.5247C19.9732 33.5874 19.1332 33.277 18.7407 34.0357C19.1332 34.2489 19.3138 34.7035 19.8711 34.7787C19.8358 35.1706 19.4315 35.1926 19.2313 35.0201C19.0602 34.8646 18.8286 34.7596 18.5736 34.7221C18.3187 34.6845 18.0554 34.7166 17.8261 34.8132C16.9233 35.3148 15.9734 35.0515 15.0784 35.0703C14.2826 35.0575 13.4995 35.2307 12.8254 35.5688L12.8214 36.3431Z" fill="#5BC0C8"/>
<path d="M32.4603 34.908C33.847 34.5608 35.3079 34.4545 36.6595 33.9884C37.0501 33.8571 37.5579 33.9697 38.0149 33.9697C39.2528 33.3362 40.6304 32.8978 42.0735 32.6778L43.5149 31.5268C44.2258 31.5862 44.8156 30.9794 45.6203 31.1702L46.4914 30.0754C46.9211 29.7407 47.5929 30.1943 47.6828 29.5969H48.6164C50.1984 28.3676 52.0499 27.4073 53.4523 26.0623C53.7907 25.77 54.099 25.4562 54.3742 25.124C54.8384 24.5548 55.1546 23.9165 55.3038 23.2472C55.3819 22.6873 55.4796 22.0899 55.5382 21.5206C55.6554 20.3258 54.9249 19.256 55.0811 18.1331C54.1319 17.6608 54.3858 16.6693 53.5187 16.2345C53.8819 15.3305 52.714 14.8426 52.589 14.045C52.5142 13.7733 52.3683 13.5174 52.1609 13.2941C51.9535 13.0709 51.6894 12.8855 51.3859 12.75C51.1343 12.6669 50.9137 12.5333 50.7453 12.3621C50.1888 11.6677 49.4746 11.0629 48.6398 10.5792C47.5485 10.0721 46.397 9.65299 45.2023 9.32808C44.6046 9.14353 43.9641 8.95586 43.3391 8.78383C42.7151 8.59801 42.0737 8.4516 41.4211 8.34593C40.675 8.23646 39.7962 8.56801 39.1634 8.20204C38.4368 7.77978 37.4758 8.3647 36.8509 7.72348C36.7376 7.67945 36.6122 7.65919 36.4864 7.66466C36.3607 7.67014 36.2388 7.70115 36.1321 7.75476C35.6517 8.19892 35.0462 7.97057 34.5032 8.01749C32.7415 8.1645 30.9876 7.98622 29.1869 8.25834C27.1947 8.57113 25.1244 8.69 23.0932 8.93398C21.6475 9.12048 20.2234 9.4019 18.8354 9.77539C16.6792 10.3447 14.5034 10.9171 12.4019 11.6521C11.3081 12.0337 10.2456 12.4998 9.105 12.8094C7.81985 13.1598 7.37065 14.192 6.48785 14.8676C5.20661 15.8529 4.38631 17.0571 3.5621 18.277C3.5621 19.109 3.5621 19.9411 3.5621 20.7793C3.52304 22.0305 3.95272 23.2253 4.34334 24.4233C4.49959 24.9144 4.66362 25.4493 5.18705 25.6745C5.96829 26.0248 4.98006 26.8568 5.91365 27.0758C6.69489 27.9516 7.24176 28.9775 8.648 29.428C9.17924 29.5969 9.08548 30.2193 9.605 30.504C11.394 31.4861 12.8159 32.8499 14.7534 33.6882C14.9381 33.7399 15.0937 33.8426 15.1924 33.9779C15.2912 34.1131 15.3267 34.2721 15.2925 34.4263C14.2847 34.9737 13.3393 34.3794 12.437 34.2199C11.5347 34.0604 10.6128 34.0791 9.83937 33.6381C8.38235 32.7842 7.10501 31.7364 5.54253 30.9794V30.3132C4.1402 29.625 3.58942 28.3113 2.41756 27.3917C1.76912 25.6119 0.632415 23.9229 0.855069 21.9054L0.0738263 21.4018C0.0738263 20.8356 -0.113685 20.2976 0.108969 19.9129C0.640214 18.9745 0.327734 17.9392 0.858979 17.0384C1.31729 16.2004 1.83909 15.3856 2.42147 14.5986C3.21417 13.6042 4.26376 12.7573 5.49957 12.115C7.12065 11.2705 8.8511 10.5511 10.5347 9.80353C11.4012 9.35036 12.3914 9.07138 13.4214 8.99028C14.269 8.96213 14.8198 8.44602 15.6167 8.29901C16.322 8.11949 17.0607 8.03906 17.8002 8.06128L18.519 7.4357H20.7065C22.1948 6.77259 22.1947 6.77259 25.2846 6.77259C25.4369 6.56928 25.64 6.30027 25.6088 6.33781C26.4877 5.93744 26.6127 6.43165 27.0033 6.47857C27.6244 6.55051 27.9798 6.05631 28.6009 6.13138C29.222 6.20645 29.9017 6.30028 30.3079 6.08445C30.9329 5.74351 31.5306 5.853 32.1399 5.84362C34.093 5.81859 36.0462 5.91243 37.9993 5.80295C39.1164 5.74352 40.1242 6.02816 41.1242 6.19081C42.6846 6.39013 44.227 6.67121 45.7414 7.03221C46.3312 7.19486 46.6438 7.57959 47.1516 7.69533C49.0188 8.11134 50.5148 9.04032 52.0538 9.90362C53.2651 10.5575 54.12 11.5563 54.4445 12.6968L55.796 13.4225C55.8351 13.6978 55.8702 13.9417 55.9054 14.1795L57.3194 15.3117C57.5731 16.3496 57.9138 17.3727 58.339 18.374C58.7882 19.3468 59.464 20.404 58.753 21.5175C59.0929 22.2713 58.96 23.0564 58.9874 23.829L58.2491 24.4202V25.5431C58.1829 25.6528 58.1045 25.7575 58.0147 25.8559C57.5928 26.2219 57.0968 26.5221 56.9054 27.0476C56.6163 27.8265 55.8351 28.1831 54.8429 28.3958C54.4171 29.2153 53.9327 30.0285 52.7296 30.4414C52.1905 30.6259 51.9054 31.2171 51.2218 31.2922C50.5382 31.3673 50.4914 31.9647 49.9289 32.1211C49.3664 32.2775 49.0617 32.8186 48.4718 33.0595C46.2336 33.9978 44.05 35.0363 41.7297 35.8495C41.5383 35.9152 41.3781 35.9684 41.4211 36.1623C40.0969 36.447 38.6868 36.5877 37.4876 37.1007C36.468 37.5449 35.468 37.4479 34.4368 37.2665C34.2962 37.2414 34.1985 37.0225 34.0228 37.2321C33.9759 37.5855 33.9329 37.9421 34.3899 38.1704C33.847 38.4426 34.0266 38.8773 33.9993 39.2683C33.9251 39.5624 34.1751 39.8939 33.8587 40.1566C33.0345 40.8135 33.2533 41.6487 33.2064 42.5307L32.0579 43.2627V44.5138C31.6907 44.7547 31.2376 45.0456 30.8197 45.3146C31.1048 45.9808 30.6048 46.3405 30.1322 46.5438C29.3023 46.9146 28.5711 47.4119 27.9799 48.0077C26.6947 49.2401 24.9174 49.6342 23.0932 49.8563C22.0541 49.9845 21.0658 50.3411 19.9447 50.2253C18.844 50.1534 17.7381 50.1471 16.6362 50.2066C16.0854 50.2066 15.4643 50.0408 15.0268 50.5194C14.9565 50.5944 14.6049 50.5913 14.4682 50.5194C13.4096 49.9501 12.23 50.3192 11.1167 50.2066C10.7964 50.1784 10.3355 50.3098 10.1636 50.1816C9.34721 49.5998 8.33941 50.0345 7.42926 49.7656C6.36677 49.4528 5.32771 48.993 4.14803 48.9523C3.82772 48.4112 2.76913 48.4831 2.62851 47.7731C2.62851 47.7168 2.30037 47.698 2.08163 47.6542C1.74569 47.2507 2.3199 46.6033 1.64022 46.3124C1.90585 44.4763 3.22615 42.9749 3.98395 41.3077C4.68316 39.7438 5.54643 38.1798 7.24954 37.0944C8.12454 36.5314 9.20268 36.0841 10.2534 36.2155C11.1439 36.2726 11.982 36.5755 12.6245 37.0725C10.8433 38.2267 8.64798 39.0181 7.36284 40.5758C7.62455 40.8886 7.96049 40.9074 8.14408 40.8198C8.96048 40.4163 9.84718 40.5508 10.7183 40.507C11.5894 40.4632 12.4878 40.6759 13.2964 40.2098C13.414 40.1628 13.5438 40.1382 13.6753 40.1382C13.8068 40.1382 13.9365 40.1628 14.0542 40.2098C15.0581 40.7165 16.1635 40.5226 17.2143 40.482C17.9955 40.4538 18.6088 40.8854 19.3901 40.8417C20.0581 40.801 20.7455 40.7103 21.3978 41.1044C21.6908 41.2796 22.2807 41.1326 22.8393 41.1326L23.7611 42.0709H25.5932C26.1596 42.5526 26.7298 43.0468 27.3744 43.5973C27.4173 43.8413 27.2181 44.2229 27.5697 44.6358C28.4564 43.5535 28.7415 42.2867 29.6986 41.2545V39.8939C30.2845 39.3246 30.0501 38.6865 30.0892 38.1329C28.1048 37.0882 26.7494 36.7691 24.4096 36.766C24.226 36.569 24.0189 36.3688 23.6283 36.4814C23.4486 36.594 23.3353 36.8129 22.9291 36.7535C22.851 36.7035 22.7104 36.5345 22.5658 36.5314C19.7456 36.497 16.9213 36.4782 14.0971 36.4564C13.7065 36.3375 13.1089 36.7472 12.9253 36.1436V35.371C13.5961 35.0337 14.3755 34.8608 15.1674 34.8736C16.0737 34.8549 17.019 35.1176 17.9018 34.6171C18.13 34.5208 18.392 34.4888 18.6457 34.5262C18.8994 34.5637 19.1299 34.6684 19.3002 34.8236C19.4994 34.9956 19.9018 34.9737 19.9369 34.5827C20.6439 34.5827 21.3549 34.5608 22.0658 34.5827C24.7455 34.6703 27.4642 34.27 30.0892 35.1677C30.4776 35.2966 30.902 35.3406 31.3186 35.295C31.7353 35.2493 32.1293 35.1158 32.4603 34.908ZM22.9486 47.379C24.5346 46.7534 25.7845 46.2936 26.6947 45.4397C26.3041 45.0393 25.7767 45.3333 25.39 45.0518C24.0658 44.1134 22.4487 43.541 20.8041 43.0218C18.4138 42.2342 15.8612 41.8099 13.2769 41.7706C12.8862 41.7706 12.5269 42.0834 12.312 42.0209C10.7495 41.4829 9.24955 41.8301 7.86285 42.1085C7.18707 41.9364 7.18704 41.4641 6.85501 41.1263C6.72488 41.504 6.53731 41.8675 6.29645 42.2086C5.67238 42.8286 5.21694 43.5462 4.95931 44.3153C4.70168 45.0845 4.64752 45.8883 4.80034 46.6752C5.68314 46.963 6.56987 47.2507 7.45658 47.5448C8.40189 47.8575 9.57764 47.6167 10.4175 48.3549C11.9292 48.2204 13.5424 48.6364 15.0542 48.0421C16.3159 48.8209 17.3627 48.0984 18.4721 47.7293C18.733 47.9017 19.0503 48.0104 19.3861 48.0426C19.722 48.0747 20.0623 48.029 20.3666 47.9107C21.2729 47.6073 22.2026 47.2194 22.9486 47.379Z" fill="#222322"/>
<path d="M85.1617 18.3013C86.0015 18.5623 86.732 18.9766 87.2812 19.5034V20.4402L85.7141 21.0695C84.9031 21.0695 83.473 21.0215 82.0469 21.0695C80.6208 21.1174 79.3475 20.6264 77.9175 20.7534C76.5372 20.8957 75.1296 20.799 73.8116 20.4712L72.8438 19.7743V18.891C73.6626 18.3718 74.7401 18.3267 75.7587 18.2533C76.9811 18.1771 78.2231 18.2279 79.4572 18.2533C79.9117 18.2533 80.3466 18.2533 80.5268 17.9119C82.1135 18.5665 83.6886 18.0586 85.1617 18.3013Z" fill="#222222"/>
<path d="M79.8172 6.84863C80.3453 7.12041 80.9571 7.19893 81.375 7.61868V9.15574L79.992 10.1613C79.4714 9.97713 78.9357 10.3335 78.571 10.5267C76.8346 11.4538 74.8323 11.8615 72.9516 12.4987C72.0777 12.8006 71.0975 12.5198 70.2236 12.6255L69.5625 12.1031C69.9158 11.2303 70.0678 10.2912 71.7053 10.1402C72.1499 10.0979 72.6971 9.61476 73.1872 9.37016C74.5284 8.7058 76.1431 8.41591 77.3399 7.52809C78.2356 7.51685 79.1034 7.27883 79.8172 6.84863Z" fill="#222323"/>
<path d="M60.375 7.91106V6.41934C61.0582 5.61317 61.8429 4.86253 62.7173 4.17866C63.5592 3.57324 63.5153 2.36552 64.9917 2.09714C65.2391 1.70705 65.5104 1.27638 65.7099 0.954943C66.508 0.171639 67.7289 0.480592 68.5429 0C68.7384 0.2559 69.1814 0.230931 69.4727 0.386968C69.8717 1.17339 68.7903 1.8069 69.1614 2.55276C68.2836 3.40784 67.1663 4.02263 66.4521 4.98069C65.8176 5.85138 64.5448 6.31324 63.8824 7.25882C63.5193 7.7831 62.5097 8.06708 61.7316 8.36043C61.2009 8.56016 60.7182 8.29803 60.375 7.91106Z" fill="#242524"/>
<path d="M28.1832 40.1177C28.3347 40.5653 27.9736 40.8053 27.6358 41.0583C26.718 41.1696 25.7829 41.0028 24.9996 40.588C24.0975 40.0666 23.0255 39.7892 21.9285 39.7934C21.2413 39.8226 20.7016 39.2322 19.964 39.469C18.4614 38.9371 16.823 39.0992 14.8857 38.6549C14.7847 38.6095 14.5556 38.0678 13.849 38.1132C14.0043 37.6721 13.3987 37.1402 14.2373 36.8774C14.7537 37.2375 15.371 37.2018 15.9922 37.2018C16.6794 37.2018 17.3666 37.098 18.0499 37.2926C19.2147 37.617 20.3794 37.9413 21.614 37.8505C21.9841 37.7971 22.3644 37.8262 22.7166 37.9348C23.9163 38.3922 25.2131 38.5835 26.4905 38.843C27.2165 38.9987 28.2609 39.0928 28.1832 40.1177Z" fill="#252524"/>
<path d="M28.5806 40.0383C28.6606 39.0659 27.5838 38.9767 26.8152 38.8382C25.4982 38.5951 24.1612 38.4105 22.9242 37.9766C22.561 37.8736 22.1689 37.846 21.7874 37.8966C20.4984 37.9674 19.3014 37.6812 18.1125 37.3673C17.408 37.1827 16.6994 37.2935 15.9909 37.2812C15.3504 37.2658 14.714 37.3058 14.1816 36.9734L13.7812 36.358C16.6755 36.3795 19.5696 36.398 22.4599 36.4319C22.608 36.4319 22.7521 36.6011 22.8322 36.6503C23.2325 36.7088 23.3645 36.4934 23.5487 36.3826C23.949 36.2718 24.1651 36.4688 24.3493 36.6626C26.7511 36.6626 28.1362 36.9704 30.1698 38.0074C30.1337 38.552 30.3739 39.1798 29.7694 39.7398C29.2731 39.5798 29.0049 39.9922 28.5806 40.0383Z" fill="#5BC0C8"/>
<path d="M34.146 38.9794C34.146 38.6485 33.9907 38.2805 34.5248 38.0502C34.0816 37.8516 34.1232 37.5498 34.1687 37.256C34.3392 37.0786 34.4339 37.256 34.5703 37.2851C35.5704 37.4386 36.5402 37.5207 37.5289 37.1448C38.7071 36.7 40.0595 36.5809 41.3438 36.3506C41.0483 36.7265 40.7528 37.0945 40.0406 37.1448C39.889 37.1448 39.764 37.3857 39.6276 37.3857C38.6844 37.3857 38.5442 38.2725 37.4532 38.2408C36.7978 38.2249 36.1197 38.7014 35.3696 38.9847L34.146 38.9794Z" fill="#5BC0C8"/>
<path d="M20.7316 33.3227C20.4945 32.9816 20.3556 32.6011 20.3254 32.21C20.3254 30.6515 19.7506 29.1991 19.0723 27.7653C18.7968 27.2881 18.5923 26.7859 18.463 26.2692C18.371 25.6989 17.6506 25.4869 17.5816 24.8261C17.5127 24.1654 16.6504 23.6106 16.2518 22.956C15.9414 22.448 15.4854 21.9181 15.9453 21.0267C16.0871 20.6558 17.003 21.0579 17.4283 20.5841C17.5882 20.7063 17.7829 20.7942 17.995 20.8399C18.2071 20.8856 18.4298 20.8877 18.6431 20.8459C19.0263 21.3914 19.0263 22.0646 19.9843 22.2205C19.8502 22.9841 20.3408 23.5732 20.7853 24.2371C21.5134 25.3217 22.4293 26.3877 22.3182 27.7061C23.3107 27.7871 23.0003 26.8116 23.851 26.7337C24.3645 26.6838 24.4948 25.9825 24.9547 25.6428C25.4759 25.2625 26.1311 25.169 26.7596 24.7077C26.8514 24.4738 27.0055 24.2593 27.2108 24.0794C27.4161 23.8995 27.6677 23.7586 27.9476 23.6667C28.5837 23.4734 28.8558 22.9841 29.4268 22.7004C29.6299 22.7004 30.0131 22.7846 30.1127 22.7004C30.791 22.0147 31.841 21.7654 32.6343 21.2636C33.9449 20.4158 35.2401 20.3285 36.75 20.9519V22.3108L35.8648 23.0308C34.2476 23.6542 32.5001 24.0937 31.2432 25.2126H30.6607C28.2694 26.7711 25.4797 27.8744 23.0309 29.5451C23.0887 30.0099 23.0784 30.4786 23.0002 30.9414C22.8393 31.5149 23.5981 31.8422 23.4141 32.3752C23.5636 32.9456 23.0922 33.3788 22.9083 33.8744C22.3679 33.8744 22.0231 34.4167 21.2605 34.1861C21.0076 34.0427 20.5975 33.8089 20.7316 33.3227Z" fill="#252322"/>
</svg>
