<svg width="626" height="434" viewBox="0 0 626 434" fill="none" xmlns="http://www.w3.org/2000/svg">
<path d="M6.50027 432.448C3.01108 428.522 3.04309 418.519 2.63964 413.475C1.59623 400.433 3.36252 387.335 4.95602 374.428C6.90096 358.674 10.9053 342.403 15.5452 327.218C20.6925 310.372 32.0291 299.534 44.2241 287.509C80.7068 251.533 136.141 241.976 185.192 235.887C235.228 229.675 287.256 235.955 337.191 240.85C374.376 244.496 413.175 243.683 450.362 241.953C487.182 240.241 521.086 234.621 551.401 212.061C580.365 190.506 606.188 159.492 614.936 123.708C624.527 84.4714 623.98 41.8228 623.98 1.60147" stroke="black" stroke-width="3" stroke-linecap="round"/>
</svg>
