<svg width="1536" height="817" viewBox="0 0 1536 817" fill="none" xmlns="http://www.w3.org/2000/svg">
<path d="M-100 352.316C-132 393.116 -193.5 378.816 -206 452.316C-206 575.816 -205.5 676.416 -81.5001 770.816C73.4999 888.816 143 734.816 374 740.316C605 745.816 657 866.816 802.5 752.816C866.944 702.324 815 697.613 1012 550.816C1047.07 524.68 1144.62 444.749 1253 432.316C1453.5 409.316 1492.5 485.113 1629.5 410.316C1809 312.316 1656.5 140.816 1662.5 103.816C1668.5 66.816 1642.5 49.816 1601 -15.684C1559.5 -81.184 1139.5 -142.684 991.5 -166.684C843.5 -190.684 495.5 -129.684 397 -58.684C298.5 12.316 314.5 173.316 186.5 273.316C58.5 373.316 -60.0001 301.316 -100 352.316Z" stroke="#121212" stroke-width="2"/>
</svg>
