<svg width="342" height="610" viewBox="0 0 342 610" fill="none" xmlns="http://www.w3.org/2000/svg">
<path d="M481.352 76.3681C495.038 80.9774 509.609 83.79 524.37 86.0698C530.479 87.0134 536.612 87.8645 542.729 88.7135C551.415 89.919 560.07 91.1202 568.58 92.5753C597.562 97.5302 624.565 105.387 644.299 126.135C682.097 165.873 690.165 230.88 679.979 284.973C674.982 311.512 660.236 333.558 642.754 354.519C636.355 362.191 629.6 369.707 622.825 377.243C620.344 380.004 617.86 382.767 615.39 385.542C606.183 395.886 597.18 406.382 589.28 417.445C581.376 428.514 574.104 440.055 566.866 451.541C561.981 459.295 557.112 467.023 552.074 474.564C539.553 493.309 525.946 510.979 508.332 525.306C473.176 553.902 430.092 568.989 386.678 582.265C341.639 596.038 296.046 603.376 248.978 604.596C236.519 604.918 223.742 605.894 210.906 606.874C209.366 606.992 207.825 607.11 206.283 607.226C191.889 608.316 177.454 609.313 163.307 609.314C135.01 609.316 107.921 605.33 84.6917 590.161C38.4916 559.992 18.7338 500.315 6.39364 446.246C-4.91981 396.676 3.87079 344.947 17.6062 295.866C23.5008 274.802 33.7557 255.933 45.2597 237.541C49.4737 230.805 53.8603 224.125 58.2605 217.424C65.8568 205.857 73.4935 194.228 80.3521 182.138C86.6302 171.071 92.246 159.662 97.8319 148.312C101.158 141.555 104.473 134.819 107.911 128.19C117.137 110.402 127.275 93.3239 140.958 78.4328C141.302 78.0582 141.647 77.6831 141.992 77.3077C156.444 61.5773 171.531 45.1557 188.193 31.5696C205.249 17.6623 223.925 6.75088 245.211 2.60383C266.451 -1.53425 287.238 3.00105 307.949 10.2215C317.034 13.389 326.091 17.0681 335.161 20.7526C336.429 21.2676 337.697 21.7827 338.965 22.2965C349.303 26.484 359.661 30.5853 370.071 33.8341C389.243 39.818 407.519 47.2351 425.779 54.7672C427.093 55.3091 428.407 55.8517 429.721 56.3943C446.664 63.3912 463.648 70.4054 481.352 76.3681Z" stroke="black"/>
</svg>
