<svg width="315" height="19" viewBox="0 0 315 19" fill="none" xmlns="http://www.w3.org/2000/svg">
<path fill-rule="evenodd" clip-rule="evenodd" d="M288.983 0.0345853C288.633 0.31123 265.583 0.771464 260.772 0.597932C260.433 0.585777 254.739 0.633141 248.12 0.70356C238.025 0.810865 236.022 0.932002 235.699 1.45344C235.394 1.94553 235.312 1.95517 235.307 1.49996C235.303 1.06907 235.164 1.04057 234.756 1.38637C234.422 1.66847 233.743 1.72379 233.01 1.52847C232.349 1.35242 230.025 1.21494 227.843 1.22248C225.662 1.23045 223.973 1.07787 224.091 0.883798C224.208 0.689728 223.127 0.639429 221.689 0.772303C215.218 1.3696 191.611 1.66427 190.808 1.15793C190.581 1.01499 190.519 1.10218 190.671 1.35242C190.822 1.60266 190.758 1.92583 190.529 2.07086C190.299 2.21547 190.111 2.13415 190.111 1.8902C190.111 1.64625 189.915 1.44631 189.676 1.44631C189.437 1.44631 189.355 1.63493 189.495 1.86547C189.635 2.09601 189.564 2.28463 189.338 2.28463C189.112 2.28463 188.813 2.09601 188.673 1.86547C188.534 1.63493 188.199 1.44924 187.93 1.4526C187.636 1.45679 187.687 1.62152 188.057 1.86547C188.764 2.33157 188.491 2.39445 186.208 2.29175C185.305 2.2511 184.39 2.04445 184.175 1.83194C183.587 1.25056 169.57 1.33188 169.57 1.91661C169.57 2.26283 169.424 2.26367 169.019 1.92038C168.716 1.66385 168.385 1.53811 168.284 1.64164C168.182 1.74475 166.121 1.85876 163.704 1.89481C160.935 1.93631 159.402 2.11361 159.559 2.37391C159.697 2.60151 159.418 2.57343 158.939 2.31188C158.459 2.0499 158.068 1.98409 158.068 2.16517C158.069 2.52145 153.324 2.39277 152.316 2.00924C151.977 1.88014 147.448 1.84032 142.251 1.92122C137.054 2.0017 128.307 2.06918 122.814 2.07128C117.321 2.07337 113.254 2.19786 113.776 2.3475C114.312 2.50133 113.419 2.6384 111.723 2.66187C109.974 2.68618 108.82 2.86768 108.958 3.09612C109.104 3.3363 108.718 3.34846 107.961 3.12672C107.282 2.92804 106.629 2.92594 106.51 3.12169C106.392 3.31786 105.65 3.4172 104.861 3.34217C104.073 3.26756 103.428 3.34007 103.428 3.50354C103.428 3.66743 103.151 4.16707 102.811 4.61473C102.297 5.29293 102.236 5.30634 102.445 4.69479C102.611 4.20521 102.486 3.96126 102.069 3.96126C101.724 3.96126 101.366 3.7257 101.272 3.43732C100.906 2.31858 48.8109 2.39235 40.6804 3.52324C39.3785 3.70432 36.7094 3.88623 34.7486 3.92731C32.7878 3.96881 30.6618 4.14695 30.0242 4.32342C29.3866 4.49988 28.2642 4.6118 27.5297 4.57198C26.7951 4.53258 26.1945 4.66168 26.1945 4.85952C26.1945 5.05694 25.9788 5.21874 25.7151 5.21874C25.4518 5.21874 25.3581 5.09425 25.5072 4.94209C25.6564 4.78994 25.4181 4.40767 24.9781 4.0933C24.3463 3.64145 22.7662 3.57061 17.4831 3.75672C13.8014 3.88624 9.71824 4.14318 8.40978 4.32803C6.43292 4.60719 5.9687 4.55144 5.66428 3.99815C5.33727 3.40378 5.26784 3.41217 5.01683 4.07695C4.82456 4.58665 4.58506 4.69312 4.25682 4.41521C3.95897 4.1633 3.54898 4.15659 3.17472 4.39803C2.8436 4.6118 2.75733 4.79246 2.98328 4.79958C3.20923 4.80671 3.1324 4.9815 2.81196 5.18814C2.47591 5.40527 1.83175 5.40946 1.28619 5.19778C0.162598 4.76186 -0.218234 5.21245 0.117815 6.57891C0.348695 7.51699 1.95623 8.13735 1.95623 7.28855C1.95623 7.07226 2.24463 6.89538 2.5967 6.89538C2.94877 6.89538 3.12296 6.70676 2.98328 6.47622C2.8436 6.24568 3.01778 6.05706 3.36986 6.05706C4.1233 6.05706 4.15616 6.25323 3.58513 7.3422C3.22566 8.02711 3.29715 8.15285 4.04607 8.15285C4.82703 8.15285 4.86565 8.23711 4.36856 8.86207C4.04771 9.26614 4.01361 9.44345 4.29009 9.27452C4.55671 9.11105 4.89112 9.16931 5.03326 9.40362C5.175 9.63793 5.06079 9.82949 4.77855 9.82949C4.48934 9.82949 4.64381 10.1883 5.13309 10.6536C5.61005 11.1071 6.11864 11.8582 6.26325 12.3235C6.44771 12.9166 6.79526 13.1182 7.42505 12.9979C7.91967 12.9032 8.32392 12.798 8.32392 12.7636C8.32392 12.7292 8.78239 12.6156 9.34316 12.5108C10.3295 12.3264 10.3361 12.3403 9.54857 12.9476C8.75364 13.5604 8.75815 13.5755 9.73754 13.5885C10.7141 13.6015 10.7194 13.6191 9.94295 14.2617C9.50461 14.6247 9.37274 14.8045 9.65086 14.6616C9.92857 14.5182 10.956 14.6783 11.9338 15.017C14.1087 15.7702 22.9984 15.6311 23.2568 14.8397C23.3603 14.5224 23.1245 14.4465 22.5801 14.623C22.1208 14.7718 21.6258 14.6972 21.4804 14.4574C21.3083 14.1732 22.0933 14.0211 23.7296 14.0211C25.3006 14.0211 26.1477 13.8639 25.9891 13.6019C25.5471 12.8722 31.9004 13.0767 32.6247 13.8153C33.2471 14.4507 34.2039 14.2772 33.7955 13.6032C33.6755 13.4053 33.973 13.1149 34.4561 12.9585C35.2962 12.6865 36.2181 13.4112 35.8356 14.0429C35.7452 14.1921 36.5484 14.2286 37.6202 14.1234C38.8461 14.0031 40.134 14.1728 41.0896 14.5802C41.9252 14.9365 42.709 15.0635 42.831 14.8623C42.9526 14.6611 43.6063 14.5128 44.2833 14.5325C44.9607 14.5522 45.6443 14.4356 45.8029 14.2738C45.9615 14.112 45.0807 14.0026 43.8458 14.0303C42.6108 14.0584 40.7198 13.9486 39.6435 13.7864C38.0031 13.5395 37.7661 13.394 38.1769 12.8889C38.4492 12.5544 39.0359 12.3847 39.496 12.5075C39.952 12.6291 40.6011 12.5008 40.9388 12.222C41.3513 11.8817 41.4601 11.8729 41.2712 12.1952C41.0662 12.5444 42.4584 12.6844 46.4019 12.7112C50.6103 12.7401 51.7051 12.6366 51.3218 12.2455C51.0507 11.9689 50.324 11.7048 49.7065 11.6583C49.0894 11.6122 48.4457 11.5589 48.276 11.5401C48.1064 11.5216 47.9679 11.3456 47.9679 11.149C47.9679 10.9524 49.4929 10.8602 51.3572 10.9436C53.2215 11.027 55.0237 10.9734 55.3627 10.8242C56.4107 10.3631 58.0404 10.5006 57.9237 11.04C57.8637 11.3183 58.0486 11.5145 58.3345 11.4764C59.5542 11.3133 62.8736 11.5271 62.6506 11.7547C62.3223 12.0896 55.1244 12.0376 54.0583 11.6927C53.4511 11.4956 53.2642 11.5786 53.3985 11.9861C53.5337 12.3956 54.2473 12.5209 55.9567 12.4358C57.3547 12.3662 58.5695 12.5222 58.9166 12.816C59.3628 13.1941 59.6212 13.197 59.9811 12.8298C60.2428 12.5628 60.9284 12.3633 61.5044 12.3864L62.552 12.4279L61.5249 12.7636C60.2005 13.1966 60.4178 13.2289 66.0439 13.4334C71.5489 13.6342 71.809 13.7 71.5941 14.8384C71.4384 15.6621 71.6167 15.6977 75.9028 15.6977C78.3619 15.6977 80.4616 15.8419 80.568 16.0184C80.6748 16.1944 82.1184 16.3063 83.7761 16.2669C85.4342 16.2275 88.8238 16.1575 91.3093 16.111C93.7947 16.0649 96.198 15.8243 96.6499 15.5766C97.7139 14.9935 99.3202 14.8137 99.3202 15.2781C99.3202 15.8033 100.981 15.9911 102.357 15.6218C103.011 15.4462 103.734 15.4219 103.965 15.5678C104.64 15.9928 106.715 16.054 106.715 15.6491C106.715 15.4454 107.085 15.2786 107.537 15.2786C107.989 15.2786 108.358 15.0899 108.358 14.8594C108.358 14.6289 108.832 14.4402 109.41 14.4402C109.988 14.4402 110.366 14.5974 110.249 14.7894C110.133 14.9818 110.261 15.1419 110.533 15.1453C110.805 15.149 111.615 15.2865 112.332 15.4513C113.508 15.7208 113.614 15.6654 113.414 14.8854C113.216 14.1137 112.856 14.0156 110.056 13.9687C107.254 13.9217 107.116 13.884 108.759 13.6137C109.771 13.4468 110.955 13.4062 111.391 13.5223C111.99 13.682 112.099 13.5898 111.835 13.1442C111.544 12.6508 111.606 12.6525 112.213 13.1559C112.845 13.6786 112.995 13.6786 113.358 13.1559C113.703 12.6601 113.738 12.676 113.561 13.2461C113.229 14.312 114.485 14.4528 121.673 14.1552C126.593 13.9515 128.136 14.0051 127.914 14.3719C127.751 14.6402 127.794 14.8594 128.009 14.8594C128.225 14.8594 128.507 14.5765 128.637 14.2307C128.767 13.8849 129.11 13.6049 129.4 13.6082C129.773 13.6128 129.747 13.744 129.31 14.0592C128.762 14.4545 128.762 14.4838 129.31 14.3225C129.649 14.2223 129.903 13.8455 129.874 13.485C129.84 13.0465 130.044 12.9141 130.491 13.0847C131.092 13.314 131.097 13.259 130.542 12.5347C129.942 11.7509 129.955 11.7488 131.025 12.4455C131.749 12.9166 132.176 13.0021 132.276 12.6961C132.429 12.2271 134.762 12.2057 139.889 12.627C142.624 12.852 143.459 13.6019 140.974 13.6019C139.854 13.6019 139.548 13.749 139.719 14.2047C139.852 14.5559 139.656 14.8808 139.25 14.9839C138.867 15.0811 139.478 15.0652 140.608 14.9483C141.737 14.8313 142.885 14.732 143.157 14.7278C143.429 14.7232 143.557 14.5626 143.441 14.3702C143.325 14.1783 143.933 14.0399 144.794 14.063C146.118 14.0982 146.201 14.1493 145.336 14.395C144.64 14.5928 144.476 14.7881 144.823 15.0069C145.103 15.1834 145.517 15.2115 145.743 15.069C145.969 14.9265 146.156 15.0568 146.16 15.3586C146.165 15.7958 146.238 15.7916 146.519 15.3385C146.782 14.9164 146.949 14.8967 147.171 15.2622C147.335 15.5334 147.772 15.6361 148.142 15.4911C148.513 15.3465 149.726 15.1365 150.839 15.0254C151.952 14.9139 153.015 14.7269 153.201 14.61C153.387 14.4926 153.429 14.6892 153.294 15.0472C153.139 15.4596 153.278 15.6977 153.676 15.6977C154.02 15.6977 154.395 15.4621 154.509 15.1738C154.674 14.7546 154.722 14.7546 154.748 15.1738C154.766 15.4621 155.069 15.6977 155.421 15.6977C155.824 15.6977 155.947 15.5036 155.753 15.1738C155.514 14.7672 155.589 14.7693 156.09 15.1834C156.737 15.7178 160.765 15.8226 161.559 15.3259C161.785 15.1847 164.766 15.048 168.182 15.022C171.599 14.9965 174.632 14.8254 174.922 14.6431C175.25 14.4356 175.347 14.478 175.18 14.755C174.808 15.3683 182.09 15.4261 183.202 14.8187C183.667 14.5647 183.94 14.5354 183.807 14.7538C183.665 14.9881 184.616 15.1515 186.12 15.152L188.673 15.1524L187.03 14.6305C185.189 14.0462 185.192 14.0378 187.351 13.806C188.311 13.7034 188.808 13.7985 188.652 14.0554C188.5 14.3069 188.982 14.431 189.872 14.3698C190.681 14.3145 191.344 14.1401 191.344 13.9829C191.344 13.8257 195.688 13.7226 200.997 13.7541C206.307 13.7859 210.652 13.9641 210.652 14.1506C210.652 14.3371 210.48 14.3811 210.27 14.2487C210.059 14.1158 209.753 14.229 209.589 14.4993C209.369 14.8632 209.804 14.9198 211.261 14.7156C212.345 14.5643 213.771 14.4402 214.431 14.4402C215.281 14.4402 215.54 14.2877 215.322 13.9163C215.097 13.5344 215.195 13.542 215.682 13.9452C216.165 14.3451 216.569 14.3795 217.136 14.0697C217.612 13.8098 218.069 13.7926 218.297 14.0253C218.782 14.5195 221.867 13.4695 221.44 12.956C221.268 12.7502 221.462 12.8432 221.87 13.1626C222.503 13.6581 222.594 13.6581 222.486 13.1618C222.388 12.7053 222.959 12.5926 225.128 12.64C226.651 12.6735 228.002 12.5259 228.131 12.313C228.26 12.0997 227.939 11.9223 227.417 11.919C226.654 11.9135 226.589 11.8331 227.085 11.5061C227.563 11.1909 227.425 11.0857 226.469 11.0362C225.421 10.9822 225.382 10.9445 226.208 10.7848C226.742 10.6812 227.38 10.8015 227.625 11.0513C228.185 11.6227 228.863 11.6495 228.523 11.087C228.377 10.8464 228.75 10.6678 229.399 10.6678C230.447 10.6678 230.474 10.7085 229.772 11.2324C229.247 11.6239 229.16 11.8888 229.488 12.0955C229.748 12.2598 229.961 12.1722 229.961 11.901C229.961 11.6147 230.304 11.5003 230.782 11.6273C231.233 11.748 231.707 11.6755 231.833 11.4667C231.96 11.258 231.729 11.0681 231.32 11.0451C230.794 11.0157 230.876 10.9055 231.604 10.6678C232.344 10.426 231.838 10.3207 229.789 10.2906C226.782 10.2461 226.389 10.008 228.743 9.65638C229.525 9.53943 230.915 9.27955 231.83 9.07961C232.745 8.87926 233.9 8.74596 234.397 8.78327C234.943 8.82435 235.301 8.61058 235.301 8.24339C235.301 7.8213 235.615 7.69723 236.328 7.83639C236.995 7.96633 237.355 7.84687 237.355 7.49519C237.355 7.19717 236.939 6.86646 236.431 6.75957C235.923 6.6531 236.339 6.5546 237.355 6.54161C238.372 6.52819 242.162 6.38819 245.777 6.23101C249.392 6.07341 252.258 6.04784 252.145 6.174C251.861 6.49089 247.723 6.92891 243.38 7.1016C241.384 7.18082 239.643 7.35561 239.512 7.48974C239.38 7.62387 239.673 7.7337 240.162 7.7337C240.652 7.7337 241.053 7.95166 241.053 8.21782C241.053 8.49237 241.408 8.37333 241.874 7.94327C242.326 7.52621 242.696 7.37615 242.696 7.61046C242.696 7.84477 243.204 7.94663 243.826 7.83681C244.922 7.64274 244.931 7.65657 244.134 8.30501C243.362 8.93249 243.455 8.96351 245.674 8.81596C246.974 8.73004 248.037 8.82854 248.037 9.03476C248.037 9.24141 247.62 9.42542 247.112 9.44345C246.604 9.46147 246.419 9.57171 246.701 9.68781C247.637 10.073 247.234 10.6129 245.911 10.7462C244.286 10.9097 243.812 11.9253 245.361 11.9253C245.961 11.9253 246.704 12.1826 247.012 12.497C247.391 12.8835 248.258 13.0134 249.688 12.8986C250.852 12.8047 251.704 12.8935 251.581 13.096C251.457 13.301 252.16 13.3395 253.172 13.1828C254.17 13.0281 255.22 13.0495 255.506 13.2297C255.792 13.4099 256.123 13.3982 256.242 13.2029C256.411 12.9258 259.73 12.5331 263.364 12.3604C263.547 12.3516 263.566 12.1089 263.406 11.8205C263.178 11.408 263.231 11.4051 263.655 11.8058C264.082 12.2091 264.306 12.1655 264.729 11.5962C265.094 11.1067 265.269 11.0534 265.278 11.4294C265.287 11.8004 265.578 11.8888 266.164 11.6989C266.751 11.5086 266.945 11.5682 266.756 11.8804C266.601 12.1357 266.677 12.3444 266.923 12.3444C267.169 12.3444 267.477 12.0628 267.606 11.7182C267.736 11.3737 268.027 11.2085 268.254 11.3515C268.528 11.5241 268.526 11.6985 268.249 11.8729C268.021 12.0171 270.173 12.0699 273.033 11.9907C275.892 11.911 278.139 11.9345 278.026 12.0426C277.913 12.1508 275.787 12.3696 273.302 12.5293C268.94 12.8097 266.416 13.5416 269.42 13.6556C272.139 13.7587 277.022 13.6434 280.08 13.4037C281.775 13.2708 283.716 13.1199 284.394 13.0679C285.071 13.0155 285.938 12.7053 286.32 12.3776C287.081 11.7253 289.061 11.4906 289.378 12.015C289.488 12.1961 290.052 12.3444 290.631 12.3444C291.495 12.3444 291.597 12.4517 291.199 12.9401C290.802 13.4292 290.867 13.4955 291.566 13.3089C292.034 13.184 292.524 12.9065 292.654 12.6928C292.791 12.4656 293.13 12.5083 293.469 12.7946C294.255 13.4607 294.206 12.9841 293.403 12.1646C292.816 11.5661 292.911 11.5061 294.454 11.5061C295.431 11.5061 296.048 11.3359 295.908 11.1042C295.76 10.8606 296.275 10.794 297.219 10.9352C298.073 11.0635 299.05 11.1536 299.389 11.136C302.849 10.9553 306.6 11.2022 306.857 11.6273C307.079 11.9928 307.31 11.924 307.703 11.3758C308.081 10.8493 308.924 10.5752 310.493 10.47C311.729 10.387 312.417 10.4113 312.022 10.524C311.197 10.7596 311.049 11.4889 311.816 11.5409C312.099 11.5602 312.746 11.6231 313.254 11.6805C313.762 11.7379 314.178 11.6168 314.178 11.4114C314.178 11.2056 314.363 11.154 314.589 11.2965C314.815 11.4391 315 11.2613 315 10.9021C315 10.5429 314.832 10.2486 314.628 10.2486C314.423 10.2486 314.352 9.87141 314.47 9.41033C314.666 8.64453 314.274 8.35824 313.254 8.52255C313.084 8.5498 312.975 8.43076 313.011 8.25764C313.155 7.56352 312.434 6.54203 311.938 6.73652C311.647 6.85011 311.299 6.65185 311.165 6.29556C311.031 5.93928 311.053 5.69281 311.215 5.74772C311.376 5.80263 311.6 5.65886 311.713 5.42832C311.826 5.19778 311.338 4.95174 310.628 4.88132C309.648 4.78407 309.381 4.58204 309.518 4.043C309.646 3.54085 309.242 3.12379 308.139 2.62038L306.578 1.90864L308.016 1.85373L309.454 1.79924L308.324 1.37841C307.703 1.14661 307.194 0.815477 307.194 0.641946C307.194 0.468414 306.039 0.269732 304.627 0.200152C302.004 0.0710507 289.109 -0.0655937 288.983 0.0345853ZM155.115 1.7326C155.411 1.85373 155.765 1.83864 155.902 1.69948C156.038 1.56032 155.796 1.4614 155.363 1.47943C154.884 1.49955 154.787 1.59888 155.115 1.7326ZM237.877 1.72128C237.598 1.83613 237.044 1.84325 236.644 1.73679C236.244 1.63032 236.472 1.53643 237.15 1.52805C237.828 1.51966 238.155 1.60643 237.877 1.72128ZM261.916 1.75397C260.85 1.8399 259.001 1.84074 257.807 1.75565C256.614 1.67098 257.485 1.60056 259.745 1.5993C262.004 1.59846 262.981 1.66763 261.916 1.75397ZM101.785 3.28768C101.785 3.37821 102.062 3.56097 102.401 3.69384C102.74 3.82629 103.018 3.7521 103.018 3.52911C103.018 3.3057 102.74 3.12295 102.401 3.12295C102.062 3.12295 101.785 3.19714 101.785 3.28768ZM100.925 3.72067C100.571 4.0824 97.2662 4.24294 97.2662 3.89839C97.2662 3.70264 98.1289 3.54211 99.1834 3.54211C100.238 3.54211 101.022 3.62258 100.925 3.72067ZM109.18 4.44917C109.18 4.64198 108.764 4.81384 108.256 4.83186C107.747 4.84946 107.007 4.92701 106.61 5.00455C106.214 5.08168 105.994 4.97311 106.121 4.7627C106.248 4.55228 106.157 4.38042 105.918 4.38042C105.678 4.38042 105.483 4.56904 105.483 4.79958C105.483 5.45724 104.776 5.29 104.504 4.56821C104.298 4.01911 104.644 3.93192 106.719 4.00821C108.073 4.05809 109.18 4.25635 109.18 4.44917ZM95.786 5.28874C95.6697 5.48072 95.1233 5.6379 94.5716 5.6379C94.0199 5.6379 93.5688 5.48072 93.5688 5.28874C93.5688 5.09635 94.1152 4.93916 94.7832 4.93916C95.4511 4.93916 95.9022 5.09635 95.786 5.28874ZM100.733 6.01305C100.626 6.12203 100.335 6.00215 100.085 5.7473C99.8354 5.49287 99.3301 5.38179 98.962 5.50041C98.4173 5.67688 98.4008 5.63874 98.8729 5.2967C99.4382 4.88677 101.179 5.55742 100.733 6.01305ZM237.355 4.96473C237.355 5.27365 234.903 5.48574 234.472 5.21413C234.232 5.06239 234.782 4.90856 235.695 4.8721C236.608 4.83563 237.355 4.87713 237.355 4.96473ZM255.61 5.26317C255.334 5.71838 254.32 5.75778 254.057 5.32353C253.952 5.15084 254.31 4.98192 254.852 4.9488C255.394 4.91569 255.734 5.05737 255.61 5.26317ZM286.037 5.2309C284.628 5.64 273.095 5.97323 273.096 5.60479C273.096 5.47149 274.155 5.3185 275.449 5.26527C276.743 5.21162 277.838 5.1324 277.882 5.08838C277.925 5.04479 280.056 4.97856 282.616 4.94126C285.773 4.89515 286.873 4.9882 286.037 5.2309ZM217.225 5.89233C217.225 5.98287 216.948 6.05706 216.609 6.05706C216.27 6.05706 215.993 5.8743 215.993 5.65089C215.993 5.4279 216.27 5.35371 216.609 5.48616C216.948 5.61904 217.225 5.80179 217.225 5.89233ZM251.623 5.47191C251.486 5.61107 251.132 5.62616 250.835 5.50503C250.508 5.37131 250.605 5.27198 251.084 5.25186C251.517 5.23383 251.759 5.33275 251.623 5.47191ZM253.266 5.47191C253.129 5.61107 252.775 5.62616 252.479 5.50503C252.151 5.37131 252.248 5.27198 252.727 5.25186C253.16 5.23383 253.402 5.33275 253.266 5.47191ZM177.107 6.28466C176.973 6.64053 176.775 6.84172 176.668 6.73191C176.56 6.62209 176.594 6.33077 176.743 6.08514C177.148 5.41617 177.384 5.5461 177.107 6.28466ZM210.192 6.28634C210.295 6.39071 209.619 6.47622 208.691 6.47622C207.762 6.47622 206.889 6.66484 206.749 6.89538C206.61 7.12591 206.275 7.3116 206.006 7.30825C205.712 7.30406 205.763 7.13933 206.133 6.89538C206.593 6.59233 206.332 6.47161 205.106 6.41963L203.463 6.35047L205.311 6.09185C207.18 5.83113 209.85 5.93718 210.192 6.28634ZM211.987 5.91538C211.705 6.03191 211.243 6.03191 210.96 5.91538C210.678 5.79928 210.909 5.70413 211.474 5.70413C212.039 5.70413 212.27 5.79928 211.987 5.91538ZM88.0227 6.47622C87.8831 6.70676 87.3638 6.87652 86.8687 6.85346C86.0307 6.8149 86.0397 6.78849 86.9957 6.47622C87.5606 6.29179 88.0798 6.12203 88.1497 6.09897C88.2195 6.07592 88.1624 6.24568 88.0227 6.47622ZM90.6931 6.47622C90.6931 6.70676 90.5082 6.89538 90.2822 6.89538C90.0563 6.89538 89.8714 6.70676 89.8714 6.47622C89.8714 6.24568 90.0563 6.05706 90.2822 6.05706C90.5082 6.05706 90.6931 6.24568 90.6931 6.47622ZM233.689 6.44771C232.942 6.93017 228.673 6.90628 228.967 6.42131C229.088 6.22095 230.332 6.05999 231.731 6.06335C233.401 6.06754 234.073 6.19957 233.689 6.44771ZM285.289 6.33161C284.868 6.76125 276.989 6.85933 276.344 6.44268C275.988 6.21299 277.644 6.06754 280.663 6.06335C283.355 6.05999 285.437 6.18071 285.289 6.33161ZM87.8239 7.43567L89.666 7.61423L87.644 7.56939C86.2217 7.53753 85.5726 7.33759 85.4559 6.89538C85.3413 6.46071 85.3968 6.41963 85.6359 6.76167C85.8265 7.03412 86.8108 7.33717 87.8239 7.43567ZM83.5144 7.6528C83.3883 7.7819 83.0568 7.65322 82.7778 7.36651C82.3752 6.95238 82.4225 6.9046 83.0079 7.13178C83.4129 7.28939 83.6409 7.5237 83.5144 7.6528ZM85.1035 7.55932C85.2567 7.96717 85.1651 8.15914 84.8648 8.05687C84.2506 7.84813 83.9125 6.89538 84.4527 6.89538C84.6733 6.89538 84.9658 7.19424 85.1035 7.55932ZM203.16 7.18334C202.767 7.28813 202.027 7.2919 201.516 7.19172C201.005 7.09154 201.326 7.00562 202.23 7.001C203.134 6.99639 203.552 7.07855 203.16 7.18334ZM237.766 7.7337C237.766 7.96423 238.043 8.15285 238.382 8.15285C238.721 8.15285 238.999 7.96423 238.999 7.7337C238.999 7.50316 238.721 7.31454 238.382 7.31454C238.043 7.31454 237.766 7.50316 237.766 7.7337ZM75.1904 8.02878C74.6851 8.12812 73.7608 8.13064 73.1363 8.03465C72.5119 7.93825 72.9251 7.85693 74.0549 7.85358C75.1847 7.85064 75.6957 7.92944 75.1904 8.02878ZM88.5276 8.40602C88.3912 8.54519 88.0367 8.56028 87.7405 8.43914C87.4127 8.30543 87.51 8.20609 87.9886 8.18597C88.4216 8.16794 88.664 8.26686 88.5276 8.40602ZM183.949 8.75686C183.949 8.85872 183.764 9.05824 183.538 9.20075C183.312 9.34326 183.127 9.25985 183.127 9.0159C183.127 8.77195 183.312 8.57201 183.538 8.57201C183.764 8.57201 183.949 8.65501 183.949 8.75686ZM236.046 8.8583C236.342 8.97943 236.697 8.96434 236.833 8.82518C236.97 8.68602 236.727 8.5871 236.294 8.60513C235.816 8.62525 235.718 8.72459 236.046 8.8583ZM237.689 8.8583C237.985 8.97943 238.34 8.96434 238.476 8.82518C238.613 8.68602 238.37 8.5871 237.937 8.60513C237.459 8.62525 237.361 8.72459 237.689 8.8583ZM179.182 9.43632C179.308 9.56584 178.261 9.67859 176.853 9.68698C175.249 9.69662 174.678 9.59644 175.322 9.41871C176.524 9.08674 178.849 9.09722 179.182 9.43632ZM308.314 9.57422C308.451 9.71464 306.915 9.81608 304.901 9.80015C302.613 9.7817 301.546 9.6438 302.059 9.43255C302.968 9.05866 307.918 9.17099 308.314 9.57422ZM171.513 9.6635C171.377 9.80266 171.022 9.81775 170.726 9.69662C170.398 9.5629 170.495 9.46356 170.974 9.44345C171.407 9.42542 171.649 9.52434 171.513 9.6635ZM301.032 9.59518C301.032 10.0374 300.244 10.2235 300.009 9.83619C299.867 9.60189 300.04 9.41033 300.392 9.41033C300.744 9.41033 301.032 9.49332 301.032 9.59518ZM63.0215 10.4582C62.6826 10.804 62.172 11.087 61.8865 11.087C61.5956 11.087 61.7176 10.817 62.1654 10.4716C63.2118 9.66392 63.8091 9.6547 63.0215 10.4582ZM233.658 10.2357C233.658 10.4586 233.935 10.5328 234.274 10.4004C234.613 10.2675 234.89 10.0848 234.89 9.99422C234.89 9.90368 234.613 9.82949 234.274 9.82949C233.935 9.82949 233.658 10.0122 233.658 10.2357ZM60.4979 10.6678C61.2259 10.9872 61.1909 11.0312 60.1898 11.0576C59.5686 11.0736 59.06 10.8983 59.06 10.6678C59.06 10.1757 59.3759 10.1757 60.4979 10.6678ZM171.735 10.5236C171.457 10.6385 170.902 10.6456 170.502 10.5391C170.103 10.4327 170.33 10.3388 171.008 10.3304C171.686 10.322 172.013 10.4088 171.735 10.5236ZM177.889 10.5517C177.155 10.6448 175.954 10.6448 175.219 10.5517C174.484 10.4591 175.085 10.3828 176.554 10.3828C178.023 10.3828 178.624 10.4591 177.889 10.5517ZM203.146 10.5018C203.01 10.641 202.655 10.6561 202.359 10.5349C202.031 10.4012 202.128 10.3019 202.607 10.2818C203.04 10.2637 203.282 10.3627 203.146 10.5018ZM206.544 11.0786C205.882 11.5241 207.167 11.6658 210.447 11.5086C211.35 11.4655 211.95 11.5744 211.779 11.7509C211.607 11.9274 210.167 12.0435 208.577 12.0095C206.418 11.963 205.751 12.077 205.941 12.4601C206.081 12.7422 205.825 12.5448 205.372 12.0213C204.821 11.3833 204.454 11.2257 204.261 11.5438C204.103 11.8054 204.203 12.1642 204.485 12.3411C204.77 12.5209 204.203 12.6584 203.202 12.6521C202.216 12.6462 201.749 12.5574 202.165 12.4547C202.581 12.352 203.231 11.9517 203.611 11.5644C203.99 11.1775 204.944 10.8166 205.73 10.7621C206.794 10.6892 207.002 10.7701 206.544 11.0786ZM274.226 10.9566C273.831 11.0622 273.184 11.0622 272.788 10.9566C272.393 10.8514 272.716 10.7651 273.507 10.7651C274.298 10.7651 274.621 10.8514 274.226 10.9566ZM276.683 10.921C276.546 11.0601 276.192 11.0752 275.895 10.9541C275.568 10.8204 275.665 10.721 276.144 10.7009C276.577 10.6829 276.819 10.7818 276.683 10.921ZM47.7531 11.6755L48.8643 12.2635L47.3303 12.2191C46.4865 12.1948 46.0087 12.1026 46.2684 12.0141C46.528 11.9261 46.636 11.6813 46.5083 11.4705C46.1899 10.9445 46.4545 10.988 47.7531 11.6755ZM114.82 11.3401C114.684 11.4793 114.329 11.4944 114.033 11.3733C113.705 11.2395 113.802 11.1402 114.281 11.1201C114.714 11.1021 114.956 11.201 114.82 11.3401ZM116.677 11.3645C116.395 11.481 115.933 11.481 115.65 11.3645C115.368 11.2483 115.599 11.1532 116.164 11.1532C116.729 11.1532 116.96 11.2483 116.677 11.3645ZM202.641 11.5061C202.501 11.7367 201.982 11.9064 201.487 11.8834C200.649 11.8448 200.658 11.8184 201.614 11.5061C202.179 11.3217 202.698 11.1519 202.768 11.1289C202.838 11.1058 202.781 11.2756 202.641 11.5061ZM213.939 11.5061C213.939 11.7367 213.743 11.9253 213.504 11.9253C213.264 11.9253 213.183 11.7367 213.322 11.5061C213.462 11.2756 213.658 11.087 213.757 11.087C213.857 11.087 213.939 11.2756 213.939 11.5061ZM218.117 11.3904C217.138 11.5149 216.812 11.735 216.974 12.1638C217.286 12.995 216.808 12.9153 216.174 12.0309C215.885 11.6277 215.501 11.4491 215.319 11.6344C215.138 11.8192 215.261 12.1462 215.594 12.3608C215.926 12.5754 215.99 12.7535 215.735 12.7573C215.48 12.7607 215.056 12.4991 214.794 12.1755C214.181 11.4223 214.593 11.2731 217.374 11.2408C218.617 11.2265 218.922 11.2882 218.117 11.3904ZM221.025 11.3645C220.743 11.481 220.281 11.481 219.998 11.3645C219.716 11.2483 219.947 11.1532 220.512 11.1532C221.077 11.1532 221.308 11.2483 221.025 11.3645ZM231.962 11.784C231.487 12.3713 231.486 12.5108 231.958 12.6731C232.431 12.8353 232.431 12.9216 231.958 13.2272C231.585 13.4686 231.903 13.591 232.915 13.5956C233.749 13.599 234.531 13.4368 234.653 13.2347C234.776 13.0327 236.219 12.9091 237.861 12.9602C239.504 13.0109 241.402 12.9158 242.08 12.7481C243.443 12.4115 243.512 12.4195 236.538 12.0959C234.846 12.0171 233.398 11.758 233.32 11.52C233.114 10.89 232.605 10.9889 231.962 11.784ZM241.874 11.4868C242.213 11.7212 242.845 11.9152 243.278 11.919C244.329 11.9274 244.001 11.6876 242.491 11.3427C241.59 11.1373 241.424 11.1762 241.874 11.4868ZM197.506 11.9253C197.506 12.1558 197.31 12.3444 197.071 12.3444C196.832 12.3444 196.75 12.1558 196.89 11.9253C197.029 11.6947 197.225 11.5061 197.325 11.5061C197.425 11.5061 197.506 11.6947 197.506 11.9253ZM50.3215 12.1785C50.1851 12.3176 49.8306 12.3327 49.5344 12.2116C49.2065 12.0779 49.3039 11.9785 49.7825 11.9584C50.2155 11.9404 50.4579 12.0393 50.3215 12.1785ZM52.0761 12.3444C52.0761 12.575 52.261 12.7636 52.4869 12.7636C52.7129 12.7636 52.8977 12.575 52.8977 12.3444C52.8977 12.1139 52.7129 11.9253 52.4869 11.9253C52.261 11.9253 52.0761 12.1139 52.0761 12.3444ZM129.421 12.2003C129.142 12.3151 128.588 12.3222 128.188 12.2158C127.788 12.1093 128.016 12.0154 128.694 12.007C129.372 11.9986 129.699 12.0854 129.421 12.2003ZM230.577 12.3444C230.716 12.575 230.912 12.7636 231.012 12.7636C231.112 12.7636 231.193 12.575 231.193 12.3444C231.193 12.1139 230.997 11.9253 230.758 11.9253C230.519 11.9253 230.437 12.1139 230.577 12.3444ZM253.48 12.2212C252.972 12.321 252.139 12.321 251.631 12.2212C251.123 12.121 251.539 12.0393 252.556 12.0393C253.572 12.0393 253.988 12.121 253.48 12.2212ZM281.826 12.2212C281.318 12.321 280.486 12.321 279.978 12.2212C279.47 12.121 279.885 12.0393 280.902 12.0393C281.919 12.0393 282.335 12.121 281.826 12.2212ZM37.4362 12.9707C37.3064 13.3152 37.0155 13.4804 36.7887 13.3374C36.5357 13.1777 36.5919 12.9392 36.9346 12.7175C37.6827 12.2342 37.7081 12.2468 37.4362 12.9707ZM200.998 12.7636C200.858 12.9941 200.57 13.1828 200.357 13.1828C200.145 13.1828 199.971 12.9941 199.971 12.7636C199.971 12.5331 200.259 12.3444 200.611 12.3444C200.963 12.3444 201.138 12.5331 200.998 12.7636ZM219.587 12.6332C219.192 12.7389 218.545 12.7389 218.15 12.6332C217.754 12.528 218.078 12.4417 218.868 12.4417C219.659 12.4417 219.983 12.528 219.587 12.6332ZM118.531 13.0516C118.138 13.1564 117.399 13.1601 116.888 13.0599C116.377 12.9598 116.698 12.8738 117.602 12.8692C118.505 12.8646 118.924 12.9468 118.531 13.0516ZM185.76 13.35C185.329 13.6518 184.329 13.8484 183.538 13.7864C182.747 13.7247 181.581 13.6577 180.946 13.638C180.311 13.6183 179.879 13.4602 179.986 13.2875C180.093 13.1149 181.612 12.9346 183.362 12.8873C186.095 12.8131 186.434 12.8785 185.76 13.35ZM228.728 13.1828C228.728 13.4133 228.902 13.6019 229.115 13.6019C229.327 13.6019 229.615 13.4133 229.755 13.1828C229.895 12.9522 229.721 12.7636 229.369 12.7636C229.016 12.7636 228.728 12.9522 228.728 13.1828ZM286.577 13.0499C286.873 13.171 287.227 13.1559 287.364 13.0168C287.5 12.8776 287.258 12.7787 286.825 12.7967C286.346 12.8168 286.249 12.9162 286.577 13.0499ZM313.357 13.1828C313.357 13.4133 313.738 13.6019 314.203 13.6019C314.668 13.6019 314.934 13.4133 314.795 13.1828C314.655 12.9522 314.275 12.7636 313.949 12.7636C313.623 12.7636 313.357 12.9522 313.357 13.1828ZM34.5945 13.5663C34.7223 13.7771 34.5945 14.0341 34.3107 14.1376C34.0268 14.2407 33.9434 14.4872 34.125 14.685C34.307 14.8829 34.6274 14.7672 34.8377 14.4281C35.3439 13.6116 35.3299 13.1828 34.7975 13.1828C34.5584 13.1828 34.4668 13.3555 34.5945 13.5663ZM52.8057 13.4921C54.0304 13.5793 54.8689 13.819 54.7329 14.0433C54.6006 14.2617 55.1043 14.4469 55.8519 14.4553C56.5996 14.4637 60.0082 14.5798 63.4266 14.7139C67.5771 14.877 69.897 14.8066 70.4105 14.5023C70.989 14.1594 69.6213 14.0433 64.89 14.0337C60.8048 14.0257 58.6899 13.8744 58.8546 13.6019C59.0185 13.3311 57.6106 13.21 54.8734 13.2603C52.5317 13.3031 51.6074 13.407 52.8057 13.4921ZM144.81 13.4359C144.673 13.5751 144.319 13.5902 144.023 13.469C143.695 13.3353 143.792 13.236 144.271 13.2159C144.704 13.1979 144.946 13.2968 144.81 13.4359ZM242.248 13.6342C241.827 13.9066 241.977 14.0102 242.799 14.0148C244.025 14.0215 244.246 13.8161 243.377 13.4762C243.075 13.3575 242.566 13.4288 242.248 13.6342ZM248.447 13.5839C246.476 13.9033 247.428 14.3245 249.474 14.0387C250.378 13.9121 250.84 13.7059 250.501 13.5797C250.163 13.454 249.238 13.4556 248.447 13.5839ZM262.21 13.5541L260.977 13.8513L262.166 14.099C262.82 14.2357 263.887 14.1917 264.536 14.0014C265.255 13.7914 265.625 13.8094 265.48 14.0479C265.341 14.2768 266.238 14.4163 267.629 14.3832C268.941 14.3518 269.553 14.2395 268.988 14.1334C268.423 14.0274 267.776 13.8019 267.55 13.6321C267.009 13.2255 263.768 13.1782 262.21 13.5541ZM309.351 13.4716C309.746 13.5772 310.394 13.5772 310.789 13.4716C311.184 13.3664 310.861 13.28 310.07 13.28C309.279 13.28 308.956 13.3664 309.351 13.4716ZM27.761 13.8882C28.0572 14.0093 28.4117 13.9943 28.5481 13.8551C28.6845 13.7159 28.4421 13.617 28.0091 13.635C27.5305 13.6552 27.4331 13.7545 27.761 13.8882ZM57.7298 13.8899C57.337 13.9947 56.5976 13.9984 56.0865 13.8983C55.5755 13.7981 55.8967 13.7122 56.8005 13.7075C57.7043 13.7029 58.1225 13.7851 57.7298 13.8899ZM174.2 13.8769C173.922 13.9917 173.367 13.9989 172.967 13.8924C172.568 13.7859 172.795 13.692 173.473 13.6837C174.151 13.6753 174.478 13.762 174.2 13.8769ZM178.908 13.8551C178.771 13.9943 178.417 14.0093 178.121 13.8882C177.793 13.7545 177.89 13.6552 178.369 13.635C178.802 13.617 179.044 13.7159 178.908 13.8551ZM235.816 14.0965C235.346 14.2826 235.594 14.3811 236.534 14.3811C237.324 14.3811 238.341 14.2248 238.793 14.0332C239.416 13.7692 239.242 13.7 238.076 13.7482C237.229 13.783 236.212 13.9398 235.816 14.0965ZM292.713 13.8794C292.996 13.9959 293.458 13.9959 293.74 13.8794C294.023 13.7633 293.792 13.6681 293.227 13.6681C292.662 13.6681 292.431 13.7633 292.713 13.8794ZM20.6062 14.5102C20.4899 14.7022 20.1173 14.8594 19.7784 14.8594C19.4394 14.8594 19.2574 14.7022 19.3737 14.5102C19.49 14.3178 19.8626 14.1607 20.2015 14.1607C20.5404 14.1607 20.7224 14.3178 20.6062 14.5102ZM131.064 14.3116C131.464 14.418 132.018 14.4109 132.296 14.296C132.574 14.1812 132.247 14.0944 131.57 14.1028C130.892 14.1112 130.664 14.2051 131.064 14.3116ZM138.271 14.3074C138.567 14.4285 138.922 14.4134 139.058 14.2742C139.195 14.1351 138.952 14.0362 138.519 14.0542C138.041 14.0743 137.943 14.1737 138.271 14.3074ZM18.7998 14.6951C18.7998 15.0417 18.002 15.2379 17.8192 14.9361C17.7004 14.7404 17.8726 14.5798 18.2016 14.5798C18.5307 14.5798 18.7998 14.6318 18.7998 14.6951ZM23.935 14.8594C23.7953 15.0899 23.8771 15.2786 24.1162 15.2786C24.3553 15.2786 24.5513 15.0899 24.5513 14.8594C24.5513 14.6289 24.4699 14.4402 24.3701 14.4402C24.2703 14.4402 24.0747 14.6289 23.935 14.8594ZM72.8224 14.8594C72.9621 15.0899 72.8804 15.2786 72.6413 15.2786C72.4022 15.2786 72.2062 15.0899 72.2062 14.8594C72.2062 14.6289 72.2876 14.4402 72.3874 14.4402C72.4872 14.4402 72.6828 14.6289 72.8224 14.8594ZM160.224 14.7433C159.49 14.8363 158.288 14.8363 157.554 14.7433C156.819 14.6507 157.42 14.5744 158.889 14.5744C160.358 14.5744 160.959 14.6507 160.224 14.7433ZM275.561 14.8003C275.561 15.3255 276.487 15.9744 277.102 15.8805C277.385 15.8377 277.939 15.7732 278.334 15.7375C278.942 15.6822 278.958 15.6181 278.437 15.3226C277.404 14.7357 275.561 14.4013 275.561 14.8003ZM279.259 15.2786C279.259 15.5091 279.444 15.6977 279.67 15.6977C279.896 15.6977 280.08 15.5091 280.08 15.2786C280.08 15.048 279.896 14.8594 279.67 14.8594C279.444 14.8594 279.259 15.048 279.259 15.2786ZM286.345 15.1482C286.741 15.2538 287.388 15.2538 287.783 15.1482C288.178 15.043 287.855 14.9566 287.064 14.9566C286.274 14.9566 285.95 15.043 286.345 15.1482ZM262.826 15.6193C262.826 15.8067 263.704 15.9991 264.777 16.0465C266.198 16.1093 266.561 16.0184 266.113 15.712C265.374 15.2077 262.826 15.136 262.826 15.6193ZM275.119 15.3833C274.794 16.4685 274.959 16.7909 275.88 16.8688C276.898 16.9548 276.905 16.9367 276.178 16.1177C275.482 15.3326 275.194 15.1331 275.119 15.3833ZM28.1718 15.984C28.468 16.1051 28.8225 16.09 28.9589 15.9509C29.0953 15.8117 28.8529 15.7128 28.4199 15.7308C27.9413 15.7509 27.844 15.8503 28.1718 15.984ZM29.9946 15.9865C30.3898 16.0921 31.0373 16.0921 31.4325 15.9865C31.8277 15.8813 31.5044 15.795 30.7135 15.795C29.9227 15.795 29.5994 15.8813 29.9946 15.9865ZM202.644 16.1123C202.5 16.3495 202.665 16.4199 203.031 16.277C203.742 15.9983 203.872 15.6977 203.282 15.6977C203.069 15.6977 202.782 15.8842 202.644 16.1123ZM255.02 16.1416C255.02 16.3856 255.205 16.469 255.431 16.3265C255.657 16.1839 255.842 15.9844 255.842 15.8826C255.842 15.7807 255.657 15.6977 255.431 15.6977C255.205 15.6977 255.02 15.8977 255.02 16.1416ZM303.173 16.1923C302.786 16.3491 304.118 16.4903 306.133 16.5067C308.148 16.5226 309.675 16.412 309.526 16.2602C309.162 15.8884 304.055 15.8339 303.173 16.1923ZM311.097 16.1169L309.865 16.4367L311.176 16.4866C311.897 16.5138 312.601 16.3474 312.741 16.1169C313.022 15.6529 312.884 15.6529 311.097 16.1169ZM169.878 16.3944C170.161 16.5109 170.623 16.5109 170.905 16.3944C171.188 16.2782 170.957 16.1831 170.392 16.1831C169.827 16.1831 169.596 16.2782 169.878 16.3944ZM188.74 16.3981C188.541 16.6006 184.686 17.0047 181.699 17.1358C180.112 17.2054 177.704 17.3127 176.349 17.3743L173.884 17.4863L175.938 17.8128C178.971 18.2948 188.011 18.2592 189.906 17.7579C190.81 17.5185 191.763 17.3031 192.024 17.2788C192.284 17.2545 192.401 16.977 192.282 16.6618C192.141 16.2871 191.511 16.1223 190.46 16.1856C189.577 16.2388 188.802 16.3344 188.74 16.3981ZM250.296 16.505C249.161 16.7808 249.218 16.819 251.021 16.9883C252.607 17.1371 254.996 16.7905 254.199 16.5272C253.409 16.2661 251.326 16.2544 250.296 16.505ZM260.695 16.4032C260.991 16.5243 261.346 16.5092 261.482 16.37C261.619 16.2309 261.376 16.132 260.943 16.15C260.465 16.1701 260.367 16.2694 260.695 16.4032ZM156.938 16.8248C157.333 16.9305 157.98 16.9305 158.375 16.8248C158.771 16.7196 158.447 16.6333 157.656 16.6333C156.866 16.6333 156.542 16.7196 156.938 16.8248ZM227.906 16.9552C227.406 17.2855 227.459 17.3626 228.19 17.3681C228.685 17.3714 229.205 17.1857 229.344 16.9552C229.668 16.4216 228.716 16.4216 227.906 16.9552ZM231.142 16.9963C230.762 17.2419 231.082 17.3635 232.117 17.3681C232.965 17.3714 233.658 17.2327 233.658 17.06C233.657 16.6098 231.812 16.5633 231.142 16.9963ZM263.648 16.7532C263.648 17.0923 264.825 17.249 265.269 16.9686C265.602 16.759 265.404 16.6408 264.719 16.6408C264.13 16.6408 263.648 16.6915 263.648 16.7532ZM78.0682 17.2457C78.4679 17.3521 79.0225 17.345 79.3006 17.2302C79.5788 17.1153 79.2518 17.0285 78.5739 17.0369C77.8961 17.0453 77.6685 17.1392 78.0682 17.2457ZM82.0659 17.4523C81.275 17.656 79.3631 17.8966 77.8172 17.9863C76.2713 18.0764 74.9123 18.2462 74.7968 18.364C74.2517 18.9202 78.2173 19.1306 84.0546 18.8548C93.2549 18.4202 96.7773 18.3787 99.1148 18.6767C100.245 18.8209 101.23 18.7769 101.305 18.579C101.38 18.3803 101.748 18.3791 102.127 18.5757C102.504 18.7714 103.737 18.7953 104.866 18.6285L106.92 18.3246L104.661 18.263C102.044 18.1913 100.478 17.8363 100.756 17.3769C100.863 17.2004 99.167 17.0252 96.9868 16.9875C94.1324 16.9384 92.9287 17.0709 92.6859 17.4611C92.4115 17.9025 92.3478 17.9012 92.3425 17.4544C92.3388 17.127 92.1322 17.0344 91.8302 17.2251C91.1519 17.6527 89.8714 17.7306 89.8714 17.3442C89.8714 16.9158 83.8229 16.9996 82.0659 17.4523ZM105.38 17.2511C105.888 17.3509 106.72 17.3509 107.228 17.2511C107.737 17.1509 107.321 17.0692 106.304 17.0692C105.287 17.0692 104.871 17.1509 105.38 17.2511ZM210.344 17.244C210.739 17.3496 211.387 17.3496 211.782 17.244C212.177 17.1388 211.854 17.0524 211.063 17.0524C210.272 17.0524 209.949 17.1388 210.344 17.244ZM226.186 17.2415C226.483 17.3626 226.837 17.3475 226.973 17.2084C227.11 17.0692 226.867 16.9703 226.434 16.9883C225.956 17.0084 225.859 17.1078 226.186 17.2415ZM22.189 17.6632C22.5847 17.7688 23.2313 17.7688 23.6269 17.6632C24.0225 17.5579 23.6988 17.4716 22.908 17.4716C22.1172 17.4716 21.7934 17.5579 22.189 17.6632ZM97.677 17.8128C98.1268 18.1234 97.9608 18.1624 97.0607 17.957C95.5502 17.612 95.2223 17.3723 96.2732 17.3806C96.7062 17.3844 97.338 17.5785 97.677 17.8128ZM156.424 17.8664C156.424 18.3154 164.181 18.2617 165.257 17.8052C165.754 17.594 164.173 17.4691 161.251 17.4884C158.596 17.506 156.424 17.6757 156.424 17.8664ZM172.78 17.6606C173.076 17.7818 173.431 17.7667 173.567 17.6275C173.703 17.4884 173.461 17.3894 173.028 17.4075C172.549 17.4276 172.452 17.5269 172.78 17.6606ZM42.8327 18.2127C42.693 18.4432 42.9596 18.6318 43.4247 18.6318C43.8897 18.6318 44.2705 18.4432 44.2705 18.2127C44.2705 17.9821 44.0043 17.7935 43.6786 17.7935C43.3528 17.7935 42.9724 17.9821 42.8327 18.2127ZM48.1947 18.1775C48.0928 18.3455 47.2276 18.4197 46.2721 18.3426C45.3161 18.2655 44.6464 18.3166 44.7837 18.4566C45.222 18.9039 50.5462 19.1583 50.2804 18.7194C49.9567 18.1846 48.4305 17.7881 48.1947 18.1775ZM70.3575 18.2231C69.3707 18.4709 69.6094 18.5425 71.5559 18.5824C72.8927 18.6096 73.9095 18.5639 73.8154 18.4813C73.3676 18.0873 71.4639 17.9452 70.3575 18.2231ZM39.0404 18.5031C39.4401 18.6096 39.9948 18.6025 40.2729 18.4876C40.551 18.3728 40.224 18.286 39.5461 18.2944C38.8683 18.3028 38.6407 18.3967 39.0404 18.5031ZM21.5987 18.9181C21.8949 19.0392 22.2494 19.0242 22.3858 18.885C22.5222 18.7458 22.2798 18.6469 21.8468 18.6649C21.3682 18.6851 21.2709 18.7844 21.5987 18.9181ZM51.1518 18.9093C51.4344 19.0258 51.8966 19.0258 52.1788 18.9093C52.4614 18.7932 52.2302 18.6981 51.6653 18.6981C51.1004 18.6981 50.8695 18.7932 51.1518 18.9093Z" fill="white"/>
</svg>
