<svg width="25" height="25" viewBox="0 0 25 25" fill="none" xmlns="http://www.w3.org/2000/svg">
<path fill-rule="evenodd" clip-rule="evenodd" d="M9.1329 8.56739H13.6987V10.8417C14.3564 9.53367 16.0431 8.3584 18.5768 8.3584C23.434 8.3584 24.5872 10.9622 24.5872 15.7395V24.5872H19.6697V16.8274C19.6697 14.1069 19.012 12.5726 17.3376 12.5726C15.0154 12.5726 14.0503 14.2261 14.0503 16.8262V24.5872H9.1329V8.56739ZM0.700734 24.3782H5.61817V8.3584H0.700734V24.3782ZM6.32259 3.13486C6.32277 3.54704 6.24103 3.95513 6.08211 4.33544C5.92319 4.71574 5.69027 5.06067 5.39688 5.35017C4.80236 5.94102 3.99764 6.27176 3.15945 6.26972C2.32274 6.26916 1.51987 5.93927 0.924477 5.3514C0.63215 5.06091 0.400016 4.7156 0.241377 4.33525C0.0827376 3.95489 0.00071196 3.54697 0 3.13486C0 2.30259 0.331927 1.50596 0.925706 0.91833C1.52057 0.329663 2.32378 -0.000367837 3.16068 3.07665e-07C3.9991 3.07665e-07 4.8031 0.330698 5.39688 0.91833C5.98943 1.50596 6.32259 2.30259 6.32259 3.13486Z" fill="#57B79D"/>
</svg>
