<svg width="38" height="27" viewBox="0 0 38 27" fill="none" xmlns="http://www.w3.org/2000/svg">
<path d="M19.7847 23.7645C18.8687 23.6552 18.293 24.356 17.5507 24.3827C16.8311 24.4917 16.0953 24.4035 15.4219 24.1273C15.2343 23.8327 15.1125 23.501 15.0648 23.155C15.0171 22.809 15.0446 22.4568 15.1454 22.1223C16.2178 21.7772 17.3105 21.4989 18.4173 21.289C18.8836 21.2247 18.9403 20.6041 19.5213 20.778C19.7387 20.8237 19.9651 20.7966 20.1656 20.7009C20.3661 20.6051 20.5296 20.4461 20.6307 20.2483C20.7146 20.1098 21.0414 20.0289 21.2295 20.0651C21.4503 20.0938 21.6736 20.0354 21.8521 19.9024C22.148 19.7347 22.5459 19.7663 22.7307 19.3602C22.9195 18.9455 23.5152 19.4266 23.7417 18.9868C23.9081 18.6637 24.4679 19.0788 24.5313 18.5648C25.7621 18.197 26.9244 17.63 27.9719 16.8864C28.066 16.8386 28.1685 16.8098 28.2737 16.8017C28.3789 16.7936 28.4847 16.8063 28.585 16.8391C28.9039 16.7444 28.7387 16.3246 29.0488 16.2201C29.9545 15.8354 30.7596 15.2475 31.4018 14.5019C32.1518 13.8975 32.8471 13.2283 33.4797 12.5019C33.6638 12.2686 33.8212 12.0154 33.9488 11.747C34.2833 10.9578 34.594 10.1585 34.916 9.35858C34.6107 8.82335 34.4497 8.21793 34.449 7.60173C32.7068 6.70886 30.7031 6.46736 28.7987 6.92074C27.5962 7.154 26.3752 7.26866 25.1757 7.58929C24.5693 7.75134 24.0362 8.06266 23.4393 8.2028C21.9358 8.69169 20.5308 9.44287 19.2892 10.4216C18.7606 10.7666 18.391 11.3563 17.6816 11.4566C17.6984 12.0384 17.1159 12.3046 17.094 12.9138C16.9851 13.468 16.7851 14.0002 16.5021 14.4889C16.0989 14.6555 15.6595 14.7147 15.2266 14.6609C14.7937 14.6071 14.3822 14.442 14.0321 14.1818C13.9325 13.471 13.8802 12.7067 13.7076 11.9705C13.5773 11.1469 13.3247 10.3474 12.9581 9.59841C13.2628 8.72493 11.8749 8.40429 12.3169 7.46834C11.4344 6.96567 11.2881 5.92862 10.6251 5.25014C10.0371 4.59096 9.34657 4.03107 8.58005 3.59211C7.68266 3.16692 6.76291 2.79062 5.82484 2.46486C4.94886 2.26076 4.06033 2.11491 3.16507 2.02827L2.70923 3.16071C2.50498 4.46079 3.24616 5.4098 3.1152 6.51911C3.25868 6.61264 3.38145 6.73461 3.47594 6.87746C3.57043 7.02031 3.63463 7.18102 3.66457 7.34966C3.82026 7.95042 4.0618 8.52558 4.38173 9.05737C4.63739 9.42066 4.77623 9.85325 4.77975 10.2975C4.73211 10.8561 5.26896 11.1992 5.53605 11.6224C6.07991 12.5828 6.56089 13.5775 6.97595 14.6003C7.13157 14.6226 7.27741 14.6894 7.39593 14.7927C7.51445 14.896 7.60059 15.0313 7.64398 15.1824C8.05369 16.2752 8.69637 17.2656 9.52737 18.0849C9.81489 18.4312 9.77432 18.8961 10.1578 19.1977C10.4795 19.5475 10.7377 19.9508 10.9208 20.3893C11.3811 21.2037 11.8974 21.9852 12.4658 22.7282C13.2294 23.7273 14.1001 24.6397 15.0623 25.4492C15.437 25.747 15.3946 26.1352 15.1381 26.5287C14.0102 26.5685 13.5821 25.4099 12.6788 25.0602C12.6221 24.3638 11.9841 24.1746 11.539 23.9094C10.6721 23.3928 10.4106 22.4468 9.85541 21.727C9.29252 20.8352 8.63126 20.0094 7.88406 19.2652C7.39373 18.8625 7.43977 18.3175 7.19412 17.8662C6.65725 16.8799 5.82461 16.118 5.28878 15.134C5.1325 14.8472 4.8389 14.679 4.89578 14.2649C4.92817 14.0289 4.74033 13.8177 4.55857 13.6041C3.95742 12.9092 3.48945 12.1095 3.1781 11.245C2.81119 10.3018 2.36551 9.39118 1.84578 8.5228C1.65678 8.19153 1.40974 7.97914 1.43095 7.52859C1.44622 7.20387 1.20413 6.85178 1.03217 6.53628C0.497379 5.37014 0.29383 4.07932 0.443816 2.8052C0.553627 2.05998 0.758696 1.33194 1.05399 0.638965C2.09901 0.294174 3.20923 0.193912 4.29911 0.34591C4.99243 0.414425 5.66762 0.607854 6.29204 0.916848C7.16319 1.20516 8.04823 1.44965 8.94385 1.64937C9.77511 2.08676 10.5616 2.6044 11.2921 3.19488C12.0388 3.67829 12.6749 4.31403 13.1587 5.06044C13.6132 5.75929 14.1772 6.4025 14.6683 7.09587C14.9661 7.59914 15.1128 8.17755 15.0908 8.76196C15.4332 8.91238 15.5161 9.26697 15.7098 9.70045L18.9245 7.515C19.4141 7.71003 19.8745 6.95054 20.5409 7.17045C20.8192 6.78831 21.1837 6.47715 21.6047 6.26221C22.0258 6.04726 22.4916 5.93458 22.9643 5.9333C23.4895 5.92662 23.9449 5.66351 24.4633 5.68287C24.7048 5.6919 24.8092 5.45183 24.9261 5.27964C25.8127 5.30777 26.6978 5.1888 27.5455 4.92755C28.3132 4.7442 29.0637 4.90368 29.8218 4.7072C30.5281 4.64372 31.2397 4.67323 31.9383 4.79498C33.3131 4.83552 34.6605 5.18996 35.8773 5.8312C36.6642 6.63316 36.8799 7.80646 37.406 8.81344C37.2697 9.34582 37.2667 9.90361 37.3974 10.4374C37.3535 10.6698 37.1452 10.6757 36.9315 10.8037C36.9147 11.228 37.0715 11.7059 36.4932 12.0926C36.1419 12.3276 36.0427 13.0072 35.9037 13.5307L35.1553 13.8492C34.8233 14.6714 34.2876 15.3957 33.5986 15.954C32.796 16.5578 32.0674 17.2543 31.4281 18.029C31.2149 18.3677 30.6245 17.9789 30.521 18.5114C28.4021 19.7122 26.2141 20.7868 23.9685 21.7296C23.4028 21.8453 22.8863 22.1317 22.4886 22.5503C22.4591 22.5852 22.4218 22.6126 22.3798 22.6304C22.3377 22.6482 22.2921 22.6559 22.2465 22.6528C21.638 22.4842 21.2093 23.0736 20.6211 23.0173C20.1496 22.9725 19.8987 23.2666 19.7847 23.7645Z" fill="#F2B9CE"/>
</svg>
