<svg width="89" height="90" viewBox="0 0 89 90" fill="none" xmlns="http://www.w3.org/2000/svg">
<path d="M56.4721 0.97547C64.8002 3.22886 71.2436 9.56092 76.7719 16.1948C82.2 22.7084 86.0998 30.2441 87.7914 38.5581C89.5486 47.1946 89.5861 56.1502 86.5874 64.4366C83.4449 73.1204 78.5411 81.7488 70.5156 86.2966C62.645 90.7567 52.8011 90.765 44.0326 88.5514C36.2906 86.597 32.0098 78.626 24.9956 74.8054C17.2285 70.5747 4.69105 73.0588 0.900345 65.0577C-2.87988 57.0788 6.32058 48.8042 8.63991 40.2833C10.5823 33.1471 9.48506 25.3368 13.4164 19.0756C17.6803 12.2846 24.0777 7.03956 31.4624 3.93512C39.363 0.613816 48.2004 -1.26264 56.4721 0.97547Z" fill="#57B79D" fill-opacity="0.2"/>
</svg>
