<svg width="17" height="17" viewBox="0 0 17 17" fill="none" xmlns="http://www.w3.org/2000/svg">
<g clip-path="url(#clip0_9_243)">
<path fill-rule="evenodd" clip-rule="evenodd" d="M2.16487 7.51908C2.92333 7.24882 3.72147 6.88963 4.33696 6.3696C5.06796 5.75194 5.36525 4.95644 5.56489 4.11908C5.8212 3.04329 5.92361 1.8973 6.23441 0.81976C6.34948 0.419606 6.57094 0.268347 6.66597 0.201219C6.90615 0.0316544 7.14892 -0.01367 7.37733 0.00333003C7.64803 0.0229454 8.01986 0.125374 8.2644 0.579144C8.29927 0.644092 8.34459 0.743046 8.3751 0.87861C8.39733 0.977995 8.41172 1.28878 8.43526 1.41694C8.4941 1.73253 8.54336 2.04813 8.58957 2.36546C8.74344 3.42164 8.83193 4.3187 9.31796 5.28901C9.97747 6.60629 10.6383 7.41227 11.5345 7.76927C12.4011 8.1145 13.4372 8.04957 14.761 7.77887C14.887 7.74836 15.0116 7.7222 15.135 7.70084C15.7187 7.59884 16.2766 7.982 16.3913 8.56348C16.5059 9.14454 16.135 9.71076 15.5565 9.83848C15.4358 9.86507 15.3168 9.89035 15.1991 9.91345C13.4102 10.3563 11.3392 11.9369 10.1357 13.3209C9.76474 13.7476 9.22163 14.9407 8.6676 15.7017C8.25873 16.2632 7.79929 16.6332 7.41352 16.764C7.15503 16.8521 6.93709 16.8386 6.75706 16.7941C6.49552 16.7296 6.27846 16.5879 6.11194 16.3625C6.02128 16.2392 5.93713 16.074 5.89703 15.863C5.87785 15.7614 5.87568 15.5034 5.87612 15.3866C5.76322 14.9982 5.62504 14.619 5.52434 14.2271C5.28416 13.2921 4.81295 12.7001 4.25326 11.9181C3.72975 11.1863 3.16746 10.7264 2.34318 10.3594C2.23595 10.3332 1.37069 10.1214 1.06512 9.99976C0.618763 9.82148 0.406034 9.52288 0.32888 9.36203C0.197675 9.08916 0.184174 8.85074 0.210328 8.65197C0.249123 8.35861 0.380765 8.10754 0.614406 7.90485C0.759124 7.77887 0.975331 7.65637 1.26477 7.59666C1.48838 7.55001 2.08161 7.523 2.16487 7.51908ZM7.2409 5.99516C7.28101 6.08452 7.32373 6.17433 7.36906 6.26499C8.33501 8.19427 9.41516 9.27138 10.7281 9.79402L10.7721 9.81102C9.89378 10.4631 9.09869 11.1919 8.49105 11.8907C8.24084 12.1784 7.90957 12.776 7.5517 13.3889C7.22652 12.3318 6.69473 11.5847 6.02606 10.6497C5.51519 9.93613 4.97991 9.39911 4.32214 8.96147C4.83258 8.6995 5.31947 8.39262 5.7436 8.03431C6.44975 7.43757 6.9166 6.74622 7.2409 5.99516Z" fill="#121212"/>
</g>
<defs>
<clipPath id="clip0_9_243">
<rect width="17" height="17" fill="white"/>
</clipPath>
</defs>
</svg>
