<svg width="119" height="105" viewBox="0 0 119 105" fill="none" xmlns="http://www.w3.org/2000/svg">
<path fill-rule="evenodd" clip-rule="evenodd" d="M110.227 17.4387C115.042 17.4387 118.946 13.5349 118.946 8.71936C118.946 3.90379 115.042 0 110.227 0C105.411 0 101.507 3.90379 101.507 8.71936C101.507 11.8559 103.163 14.6057 105.649 16.1418L91.4839 45.1492L81.0507 32.1508C82.5294 30.5884 83.4362 28.4792 83.4362 26.1583C83.4362 21.3427 79.5324 17.439 74.7169 17.439C69.9013 17.439 65.9975 21.3427 65.9975 26.1583C65.9975 28.9526 67.3119 31.4399 69.3561 33.0356L55.7867 66.4424L47.4255 50.8783C49.7875 49.3183 51.3458 46.6398 51.3458 43.5973C51.3458 38.7817 47.442 34.8779 42.6265 34.8779C37.8109 34.8779 33.9071 38.7817 33.9071 43.5973C33.9071 46.5831 35.4079 49.2184 37.6963 50.79L16.912 89.4805L18.6739 90.427L39.4641 51.7255C40.4445 52.1072 41.511 52.3166 42.6265 52.3166C43.6859 52.3166 44.7012 52.1277 45.6405 51.7817L55.0316 69.263C55.215 69.6044 55.5791 69.8091 55.9661 69.7883C56.353 69.7676 56.6932 69.5251 56.839 69.1661L71.0871 34.0886C72.1923 34.5952 73.4216 34.8777 74.7169 34.8777C76.4912 34.8777 78.1418 34.3477 79.5189 33.4374L90.9109 47.6304C91.1252 47.8975 91.4613 48.0363 91.8016 47.9983C92.1419 47.9604 92.4391 47.751 92.5893 47.4433L107.46 16.9907C108.329 17.2813 109.26 17.4387 110.227 17.4387ZM104.06 71.5316C104.06 76.3472 100.157 80.2509 95.3411 80.2509C90.5255 80.2509 86.6217 76.3472 86.6217 71.5316C86.6217 66.716 90.5255 62.8122 95.3411 62.8122C100.157 62.8122 104.06 66.716 104.06 71.5316ZM8.71936 39.0025C13.5349 39.0025 17.4387 35.0987 17.4387 30.2831C17.4387 25.4676 13.5349 21.5638 8.71936 21.5638C3.90379 21.5638 0 25.4676 0 30.2831C0 35.0987 3.90379 39.0025 8.71936 39.0025ZM54.5623 96.2806C54.5623 101.096 50.6585 105 45.843 105C41.0274 105 37.1236 101.096 37.1236 96.2806C37.1236 91.4651 41.0274 87.5613 45.843 87.5613C50.6585 87.5613 54.5623 91.4651 54.5623 96.2806Z" fill="black"/>
</svg>
