<svg width="329" height="55" viewBox="0 0 329 55" fill="none" xmlns="http://www.w3.org/2000/svg">
<g clip-path="url(#clip0_42_224)">
<path d="M42.4544 7.27718C37.3951 -0.0324138 27.4025 -2.19902 20.1779 2.4475L7.49215 10.6111C5.77751 11.6993 4.30673 13.1368 3.17387 14.8316C2.04101 16.5264 1.271 18.4412 0.913098 20.4536C0.307992 23.8428 0.840054 27.3389 2.42505 30.3885C1.3388 32.0516 0.597896 33.9198 0.247118 35.8801C-0.114231 37.9328 -0.0659379 40.0377 0.389166 42.0713C0.844269 44.1049 1.69702 46.0263 2.89742 47.7228C7.95673 55.0334 17.9498 57.2005 25.1735 52.5525L37.8621 44.3889C39.5763 43.3005 41.0466 41.8629 42.179 40.1681C43.3114 38.4733 44.0809 36.5586 44.4382 34.5464C45.0444 31.1575 44.5137 27.6613 42.9302 24.611C44.0157 22.9478 44.7561 21.0799 45.1067 19.1199C45.4685 17.0672 45.4204 14.9623 44.9654 12.9286C44.5104 10.895 43.6575 8.97358 42.4568 7.27718" fill="#FF3E00"/>
<path d="M18.938 48.4108C16.9412 48.9348 14.8332 48.8276 12.8987 48.1037C10.9642 47.3798 9.29634 46.0741 8.12033 44.3629C7.39857 43.3429 6.88582 42.1876 6.61216 40.9649C6.33849 39.7422 6.30942 38.4766 6.52665 37.2424C6.60017 36.8372 6.70143 36.4377 6.82972 36.0466L7.06858 35.31L7.71899 35.7918C9.21971 36.9056 10.8978 37.7526 12.681 38.2962L13.1524 38.4406L13.1091 38.916C13.0518 39.5914 13.2333 40.2655 13.6214 40.8189C13.9755 41.3347 14.4779 41.7284 15.0609 41.9466C15.6438 42.1649 16.279 42.1972 16.8807 42.0392C17.156 41.9653 17.4185 41.8494 17.6591 41.6954L30.3472 33.5309C30.6578 33.3335 30.9242 33.0731 31.1295 32.7661C31.3347 32.4591 31.4744 32.1123 31.5396 31.7478C31.6047 31.3757 31.5957 30.9943 31.5132 30.6257C31.4306 30.2572 31.2762 29.909 31.0589 29.6013C30.7048 29.0855 30.2023 28.6918 29.6195 28.4734C29.0366 28.255 28.4014 28.2224 27.7996 28.38C27.5243 28.454 27.2618 28.5699 27.0212 28.7238L22.1794 31.8396C21.3826 32.3506 20.5131 32.7358 19.6011 32.9818C17.6043 33.5059 15.4963 33.3987 13.5618 32.6748C11.6272 31.9509 9.95936 30.6452 8.78339 28.9339C8.06142 27.914 7.54851 26.7587 7.27476 25.536C7.00101 24.3133 6.97193 23.0476 7.18922 21.8134C7.40485 20.6033 7.86829 19.452 8.5499 18.4331C9.23151 17.4141 10.1163 16.55 11.1476 15.896L23.8373 7.73292C24.6339 7.22119 25.5034 6.83549 26.4156 6.58922C28.4124 6.06527 30.5203 6.17248 32.4549 6.89636C34.3894 7.62024 36.0572 8.92593 37.2333 10.6371C37.9551 11.6571 38.4679 12.8124 38.7417 14.0351C39.0154 15.2578 39.0446 16.5234 38.8274 17.7577C38.7533 18.1627 38.6519 18.5623 38.5239 18.9534L38.285 19.69L37.6351 19.2093C36.1344 18.0953 34.4563 17.2483 32.6731 16.7048L32.2012 16.5604L32.245 16.0851C32.3021 15.4092 32.1208 14.7347 31.7332 14.1807C31.379 13.6649 30.8766 13.2713 30.2937 13.053C29.7108 12.8348 29.0755 12.8024 28.4738 12.9604C28.1986 13.0343 27.9361 13.1502 27.6955 13.3041L15.0039 21.4692C14.6934 21.6663 14.4271 21.9267 14.222 22.2336C14.0169 22.5406 13.8774 22.8873 13.8125 23.2518C13.7471 23.6238 13.7559 24.0054 13.8382 24.374C13.9206 24.7426 14.0749 25.091 14.2922 25.3987C14.6464 25.9145 15.1489 26.3081 15.7317 26.5265C16.3146 26.7449 16.9498 26.7776 17.5516 26.62C17.8268 26.5459 18.0892 26.43 18.3299 26.2763L23.1713 23.1619C23.9678 22.65 24.8373 22.2644 25.7496 22.0187C27.7463 21.4947 29.8542 21.6019 31.7887 22.3258C33.7231 23.0497 35.3909 24.3554 36.5668 26.0666C37.2888 27.0865 37.8017 28.2418 38.0754 29.4645C38.3492 30.6873 38.3782 31.9529 38.161 33.1871C37.9458 34.3972 37.4829 35.5486 36.8019 36.5678C36.1209 37.5871 35.2367 38.4517 34.2059 39.1065L21.5163 47.2671C20.7197 47.7789 19.8502 48.1646 18.938 48.4108Z" fill="white"/>
</g>
<g clip-path="url(#clip1_42_224)">
<path d="M67.5173 42.382C64.8611 42.4403 62.247 41.7946 60.0188 40.5298C57.9369 39.3298 56.391 37.5402 55.6406 35.4615L60.2046 33.9958C60.8379 35.2718 61.8716 36.365 63.1862 37.1489C64.5209 37.9314 66.0983 38.3372 67.7053 38.3112C69.2494 38.3817 70.7732 37.9785 72.0134 37.1713C72.553 36.7754 72.9792 36.2748 73.2582 35.7093C73.5372 35.1439 73.6612 34.5293 73.6203 33.9146C73.6267 33.3418 73.475 32.7761 73.1782 32.2654C72.9197 31.8087 72.5819 31.3897 72.1768 31.0233C71.6641 30.6155 71.0827 30.2791 70.4529 30.0258C69.676 29.6872 69.0316 29.4295 68.5196 29.2524C68.0077 29.0753 67.2547 28.8379 66.2607 28.54C65.0188 28.1601 64.0874 27.8617 63.4665 27.6448C62.6255 27.3319 61.8086 26.9714 61.0211 26.5656C60.1738 26.1727 59.4035 25.6642 58.7392 25.0593C58.1639 24.4692 57.7001 23.8027 57.3651 23.0848C56.7213 21.7165 56.586 20.2059 56.9784 18.7667C57.3707 17.3275 58.2708 16.0326 59.5514 15.065C61.4163 13.627 63.9474 12.9079 67.1445 12.9076C69.8151 12.9076 72.0121 13.4232 73.7357 14.4545C75.4087 15.4268 76.6372 16.8826 77.2059 18.5669L72.7338 19.8691C72.2846 18.9872 71.5259 18.253 70.5677 17.7729C69.4088 17.2107 68.0962 16.9359 66.7717 16.9784C65.4728 16.9134 64.1862 17.2285 63.1151 17.8741C62.6778 18.1705 62.3289 18.5548 62.098 18.9943C61.867 19.4337 61.7609 19.9154 61.7885 20.3985C61.7924 20.7688 61.8857 21.1343 62.0622 21.471C62.2387 21.8077 62.4945 22.108 62.8128 22.3525C63.4317 22.8853 64.1581 23.3132 64.9555 23.6146C65.7009 23.8859 66.8344 24.2522 68.3557 24.7134C69.2867 25.0124 69.9774 25.2364 70.4278 25.3851C70.8781 25.5338 71.5375 25.785 72.4058 26.1385C73.1026 26.4078 73.7725 26.7274 74.4085 27.094C74.9781 27.4519 75.5225 27.8394 76.039 28.2544C76.6007 28.6799 77.0805 29.1815 77.46 29.7401C77.8218 30.3194 78.1032 30.9343 78.2985 31.5718C78.5359 32.3209 78.6535 33.0952 78.6477 33.8726C78.6477 36.5326 77.6074 38.6155 75.5268 40.1213C73.4462 41.6271 70.7763 42.3807 67.5173 42.382ZM97.373 41.8937L86.1944 13.3958H91.4115L98.8171 33.263C99.2262 34.3315 99.5684 35.4189 99.8419 36.5202C100.114 35.4187 100.456 34.3313 100.867 33.263L108.18 13.3958H113.349L102.217 41.8937H97.373ZM123.223 41.8937V13.3958H143.438V17.3859H128.067V25.2021H137.988V29.1922H128.067V37.9037H144.464V41.8937H123.223ZM156.804 41.8937V13.3958H161.649V37.8225H177.578V41.8937H156.804ZM195.836 17.4671V41.8937H190.991V17.4671H181.77V13.3958H205.061V17.4671H195.836ZM215.072 41.8937V13.3958H235.286V17.3859H219.916V25.2021H229.837V29.1922H219.916V37.9037H236.314V41.8937H215.072Z" fill="black"/>
<path d="M272.531 41.8938L263.356 26.9937L257.58 33.1006V41.8938H252.735V13.3959H257.58V27.1972L270.158 13.3959H275.747L266.62 23.4112L278.217 41.8938H272.531ZM288.693 41.8938V13.3959H293.537V41.8938H288.693ZM318.781 17.4672V41.8938H313.939V17.4672H304.715V13.3959H328.003V17.4672H318.781Z" fill="#8D8D93"/>
</g>
<defs>
<clipPath id="clip0_42_224">
<rect width="45.3509" height="55" fill="white"/>
</clipPath>
<clipPath id="clip1_42_224">
<rect width="273.07" height="29.9123" fill="white" transform="translate(55 12.5439)"/>
</clipPath>
</defs>
</svg>
