<svg width="55" height="32" viewBox="0 0 55 32" fill="none" xmlns="http://www.w3.org/2000/svg">
<g clip-path="url(#clip0_42_129)">
<path fill-rule="evenodd" clip-rule="evenodd" d="M27.7871 0C20.5871 0 16.0871 3.49091 14.2871 10.4727C16.9871 6.98182 20.1371 5.67273 23.7371 6.54545C25.7911 7.04291 27.2591 8.48873 28.8841 10.0878C31.5311 12.6933 34.5951 15.7091 41.2871 15.7091C48.4871 15.7091 52.9871 12.2182 54.7871 5.23636C52.0871 8.72727 48.9371 10.0364 45.3371 9.16364C43.2831 8.66618 41.8151 7.22036 40.1901 5.62133C37.5431 3.01576 34.4791 0 27.7871 0ZM14.2871 15.7091C7.08711 15.7091 2.58711 19.2 0.787109 26.1818C3.48711 22.6909 6.63711 21.3818 10.2371 22.2545C12.2911 22.753 13.7591 24.1978 15.3841 25.7968C18.0311 28.4024 21.0951 31.4182 27.7871 31.4182C34.9871 31.4182 39.4871 27.9273 41.2871 20.9455C38.5871 24.4364 35.4371 25.7455 31.8371 24.8727C29.7831 24.3753 28.3151 22.9295 26.6901 21.3304C24.0431 18.7248 20.9791 15.7091 14.2871 15.7091Z" fill="#38BDF8"/>
</g>
<defs>
<clipPath id="clip0_42_129">
<rect width="54" height="32" fill="white" transform="translate(0.787109)"/>
</clipPath>
</defs>
</svg>
