<svg width="63" height="127" viewBox="0 0 63 127" fill="none" xmlns="http://www.w3.org/2000/svg">
<path fill-rule="evenodd" clip-rule="evenodd" d="M37.4243 15.029C46.5463 26.4559 49.7283 38.0588 49.0946 48.8091C48.1368 65.0442 38.4805 79.3401 27.2114 88.1979C20.1301 93.7658 11.52 94.7503 2.1852 98.3733C1.80733 98.5202 1.81525 98.9438 2.20348 99.3197C2.58929 99.6945 3.21262 99.8815 3.58808 99.7335C13.0321 96.0682 21.7137 95.0444 28.8787 89.4119C40.3046 80.4305 50.0813 65.9271 51.0536 49.4648C51.7052 38.418 48.3915 26.4874 39.0174 14.7442C38.7017 14.3485 38.0906 14.0914 37.6506 14.1699C37.2106 14.2485 37.1086 14.6333 37.4243 15.029Z" fill="black"/>
<path fill-rule="evenodd" clip-rule="evenodd" d="M1.81873 101.77C1.85006 101.76 2.05456 101.688 2.24312 101.646C3.0213 101.466 4.48065 101.271 6.39212 101.122C12.8084 100.632 24.2975 100.687 32.5476 104.081C33.0236 104.277 33.46 104.182 33.5236 103.869C33.5873 103.556 33.2552 103.144 32.7793 102.949C24.1951 99.4168 12.2134 99.2807 5.53835 99.7925C4.64468 99.8616 3.84308 99.94 3.15968 100.025C4.17711 98.7743 5.25044 97.5633 6.35165 96.3656C9.52406 92.9192 10.9494 89.059 11.1203 84.1009C11.1328 83.7701 10.7516 83.3693 10.2725 83.2098C9.79388 83.049 9.39416 83.1887 9.38379 83.5205C9.21803 88.2922 7.84917 92.011 4.79638 95.3287C3.35794 96.8942 1.96553 98.4849 0.67967 100.148C0.551639 100.314 0.227462 100.749 0.198964 100.821C0.0357859 101.228 0.533306 101.585 0.646227 101.661C0.700549 101.698 1.39493 102.135 1.81873 101.77ZM0.35733 100.648C0.346034 100.658 0.332575 100.667 0.32079 100.679C0.32946 100.669 0.342919 100.66 0.35733 100.648Z" fill="black"/>
</svg>
