<svg width="112" height="112" viewBox="0 0 112 112" fill="none" xmlns="http://www.w3.org/2000/svg">
<g clip-path="url(#clip0_29_293)">
<path fill-rule="evenodd" clip-rule="evenodd" d="M56.6198 82.0701C56.4673 82.1539 56.331 82.2408 56.2269 82.3269C55.0307 83.3237 54.0222 84.4954 52.9125 85.5808C49.7715 88.653 47.5855 92.6474 46.8185 96.9663C46.7447 97.3826 47.0236 97.7799 47.4399 97.8536C47.8562 97.9274 48.2525 97.6502 48.3263 97.2339C49.0375 93.2269 51.0697 89.5234 53.9827 86.6747C55.0642 85.6173 56.0433 84.4753 57.2089 83.5028C57.3829 83.3574 57.7049 83.2363 57.9856 83.1013C58.2908 82.9519 58.5639 82.792 58.732 82.634C59.0099 82.3731 59.112 82.0779 59.0943 81.7938C59.0813 81.5916 59.0101 81.3699 58.8092 81.1532C58.7271 81.0651 58.5673 80.9411 58.2989 80.8507C57.8905 80.7117 56.9467 80.5577 55.7094 80.3546C53.6813 80.0247 50.8173 79.5453 48.3477 78.6948C46.799 78.1629 45.4055 77.4945 44.5282 76.5967C44.233 76.2935 43.7478 76.2887 43.4445 76.584C43.1423 76.8776 43.1365 77.3644 43.4317 77.6677C44.4498 78.7095 46.0483 79.5247 47.8491 80.1438C50.4041 81.0212 53.3667 81.5243 55.464 81.8667C55.867 81.9325 56.2671 82.0032 56.6198 82.0701Z" fill="black"/>
<path fill-rule="evenodd" clip-rule="evenodd" d="M54.694 81.6787C49.4839 87.2253 44.2106 88.648 39.9903 87.2449C33.6392 85.1332 29.8569 76.7848 32.3861 67.2542C38.7153 43.4045 65.8897 31.1991 88.2241 29.9957C88.6474 29.9721 88.9698 29.6116 88.9479 29.1893C88.9259 28.7669 88.5638 28.4435 88.1415 28.4655C65.2114 29.701 37.4032 42.3742 30.9051 66.8605C28.1295 77.3196 32.537 86.3814 39.5069 88.6986C44.1681 90.247 50.0563 88.8534 55.8096 82.7277C56.0983 82.4191 56.0832 81.9331 55.7762 81.6454C55.4686 81.3551 54.9828 81.3702 54.694 81.6787Z" fill="black"/>
</g>
<defs>
<clipPath id="clip0_29_293">
<rect width="80.873" height="80.873" fill="white" transform="translate(69.1616 111.08) rotate(-148.78)"/>
</clipPath>
</defs>
</svg>
