<svg width="44" height="39" viewBox="0 0 44 39" fill="none" xmlns="http://www.w3.org/2000/svg">
<path fill-rule="evenodd" clip-rule="evenodd" d="M26.7483 34.8319C26.8728 34.7872 26.9907 34.7532 27.0921 34.7372C28.2612 34.5567 29.4356 34.5712 30.6118 34.4845C33.9407 34.2392 37.315 35.0015 40.1609 36.7353C40.4352 36.9025 40.5213 37.2611 40.3541 37.5353C40.1869 37.8096 39.8298 37.896 39.5556 37.7288C36.9153 36.12 33.784 35.4163 30.697 35.6439C29.551 35.7286 28.4083 35.7124 27.2684 35.8877C27.0982 35.9137 26.8673 36.0363 26.6493 36.1283C26.4108 36.2271 26.1824 36.3023 26.0079 36.3187C25.7196 36.3458 25.5002 36.2556 25.3472 36.1028C25.2385 35.9937 25.148 35.8417 25.1256 35.6184C25.1166 35.5273 25.1263 35.3739 25.2097 35.1756C25.3358 34.8731 25.7224 34.258 26.2286 33.451C27.0601 32.1298 28.2264 30.2572 28.9831 28.4229C29.4585 27.2733 29.7782 26.1434 29.7077 25.1924C29.6833 24.8718 29.9244 24.593 30.2451 24.5686C30.5642 24.544 30.8445 24.7854 30.8689 25.106C30.9507 26.2097 30.6117 27.53 30.0593 28.8671C29.275 30.7637 28.0725 32.7043 27.2134 34.0713C27.0483 34.3339 26.8875 34.5974 26.7483 34.8319Z" fill="black"/>
<path d="M0.794207 7.26384C0.542539 7.3775 0.430658 7.67365 0.544315 7.92532C0.657971 8.17699 0.954125 8.28887 1.20579 8.17521L0.794207 7.26384ZM25.1169 1.22394L25.1688 1.72124L25.1169 1.22394ZM41.5303 8.12214L41.9939 7.93486L41.5303 8.12214ZM38.6717 24.7503L38.295 24.4215L38.295 24.4215L38.6717 24.7503ZM31.0488 31.5009L30.7669 31.0879L31.0488 31.5009ZM1.20579 8.17521C8.87037 4.71379 16.7894 2.59669 25.1688 1.72124L25.0649 0.72665C16.5812 1.613 8.55809 3.75757 0.794207 7.26384L1.20579 8.17521ZM25.1688 1.72124C28.4996 1.37325 31.8116 1.35596 34.6229 2.26025C37.4064 3.15561 39.7125 4.95729 41.0667 8.30943L41.9939 7.93486C40.519 4.28383 37.9695 2.2863 34.9291 1.30829C31.9164 0.339211 28.4363 0.37441 25.0649 0.72665L25.1688 1.72124ZM41.0667 8.30943C43.3447 13.9485 42.214 19.9309 38.295 24.4215L39.0484 25.0791C43.2068 20.3142 44.4177 13.9349 41.9939 7.93486L41.0667 8.30943ZM38.295 24.4215C36.1343 26.8973 33.4841 29.2333 30.7669 31.0879L31.3306 31.9138C34.1158 30.0129 36.8303 27.6207 39.0484 25.0791L38.295 24.4215ZM30.7669 31.0879C29.9655 31.6349 29.1823 32.0802 28.3554 32.6074C27.5475 33.1226 26.7444 33.689 26.0114 34.4219L26.7185 35.1291C27.3763 34.4713 28.1095 33.9502 28.893 33.4506C29.6576 32.9631 30.5209 32.4665 31.3306 31.9138L30.7669 31.0879Z" fill="#222323"/>
</svg>
